<svg width="22" height="17" viewBox="0 0 22 17" fill="none" xmlns="http://www.w3.org/2000/svg">
<path d="M20.6249 16.5H1.37501C0.615584 16.5 0 15.903 0 15.1667C0 14.4303 0.615584 13.8333 1.37501 13.8333H20.625C21.3844 13.8333 22 14.4303 22 15.1667C22 15.903 21.3844 16.5 20.6249 16.5ZM20.6249 9.83331H1.37501C0.615584 9.83331 0 9.23638 0 8.50002C0 7.76366 0.615584 7.16669 1.37501 7.16669H20.625C21.3844 7.16669 22 7.76362 22 8.50002C22 9.23643 21.3844 9.83331 20.6249 9.83331ZM20.6249 3.16667H1.37501C0.615584 3.16667 0 2.56974 0 1.83334C0 1.09693 0.615584 0.5 1.37501 0.5H20.625C21.3844 0.5 22 1.09693 22 1.83334C22 2.56974 21.3844 3.16667 20.6249 3.16667Z" fill="white"/>
</svg>
