<svg width="16" height="16" viewBox="0 0 16 16" fill="none" xmlns="http://www.w3.org/2000/svg">
<path d="M9.46582 8.0001L15.696 1.76981C16.1014 1.36455 16.1014 0.709281 15.696 0.304068C15.2907 -0.101193 14.6355 -0.101193 14.2303 0.304068L7.99993 6.53431L1.76984 0.304068C1.36438 -0.101193 0.709353 -0.101193 0.304092 0.304068C-0.101364 0.709329 -0.101364 1.36455 0.304092 1.76981L6.53413 8.0001L0.30414 14.2303C-0.101315 14.6356 -0.101315 15.2909 0.30414 15.6961C0.40027 15.7925 0.514502 15.8689 0.640272 15.9211C0.766042 15.9732 0.900871 15.9999 1.03701 15.9998C1.30233 15.9998 1.56774 15.8982 1.76988 15.6961L7.99993 9.46584L14.2303 15.6961C14.3264 15.7925 14.4406 15.8689 14.5664 15.921C14.6922 15.9732 14.827 15.9999 14.9631 15.9998C15.2284 15.9998 15.4939 15.8982 15.696 15.6961C16.1014 15.2908 16.1014 14.6356 15.696 14.2303L9.46582 8.0001Z" fill="white"/>
</svg>
