<svg width="13" height="11" viewBox="0 0 13 11" fill="none" xmlns="http://www.w3.org/2000/svg">
<path d="M0.15509 5.30725L4.91143 0.57303C5.01059 0.474329 5.14509 0.418866 5.28533 0.418866C5.42557 0.418866 5.56007 0.474329 5.65923 0.57303C5.75839 0.671731 5.81411 0.805606 5.81411 0.945189C5.81411 1.08477 5.75839 1.21865 5.65923 1.31735L1.80461 5.15338H12.1556C12.2958 5.15338 12.4302 5.20881 12.5293 5.30746C12.6284 5.4061 12.6841 5.5399 12.6841 5.67941C12.6841 5.81892 12.6284 5.95272 12.5293 6.05137C12.4302 6.15001 12.2958 6.20543 12.1556 6.20543H1.80461L5.65923 10.0415C5.75839 10.1402 5.81411 10.274 5.81411 10.4136C5.81411 10.5532 5.75839 10.6871 5.65923 10.7858C5.56007 10.8845 5.42557 10.9399 5.28533 10.9399C5.14509 10.9399 5.01059 10.8845 4.91143 10.7858L0.15509 6.05157C0.105951 6.00271 0.0669756 5.9447 0.0403776 5.88084C0.0137787 5.81698 9.53674e-05 5.74853 9.53674e-05 5.67941C9.53674e-05 5.61028 0.0137787 5.54184 0.0403776 5.47798C0.0669756 5.41412 0.105951 5.3561 0.15509 5.30725Z" fill="#222222"/>
</svg>
