<svg width="2082" height="882" viewBox="0 0 2082 882" fill="none" xmlns="http://www.w3.org/2000/svg">
<path d="M2028 90.2666C1844.26 90.151 1219.55 90.4865 1204.39 91.2695C1183.81 153.425 1163.48 215.67 1143.44 278.006C1155.73 314.684 1167.56 351.487 1178.92 388.412H1253.51V423.852C1269.4 423.852 1818.15 423.849 2028 423.848V1008H-83V-208H2028V90.2666ZM172.953 95.3232V424.73H369.291C369.246 424.428 369.361 424.197 369.637 424.04C389.067 440.12 408.77 455.773 428.745 471V95.3232H369.291V357.744H240.703V95.3232H172.953ZM740.535 96.0137C717.265 95.3231 693.99 95.0923 670.711 95.3223C703.474 150.415 736.427 205.432 769.57 260.372C745.813 299.414 722.193 338.547 698.71 377.771C698.364 393.422 698.249 409.076 698.364 424.73C712.589 424.956 726.761 424.726 740.881 424.04C761.908 388.706 783.108 353.486 804.482 318.381C825.537 353.888 846.854 389.222 868.431 424.385C891.479 424.96 914.522 424.846 937.563 424.04C905.016 369.37 872.288 314.813 839.395 260.372C865.547 216.865 891.707 173.358 917.86 129.852C918.496 128.792 918.842 127.641 918.897 126.398C915.814 116.228 912.585 106.1 909.219 96.0137C895.621 95.0932 882.029 95.0932 868.431 96.0137C846.979 131.373 825.661 166.823 804.482 202.363C782.993 167.028 761.677 131.578 740.535 96.0137ZM1054.26 90.9062C1029.95 90.0037 1005.58 89.7015 981.132 89.999V424.727H1049.26C1049.11 373.927 1049.26 323.128 1049.72 272.33C1065.93 322.869 1082.28 373.366 1098.77 423.819C1112.79 424.869 1126.87 425.02 1141.01 424.272C1144.71 413.581 1148.34 402.848 1151.91 392.07C1119.27 291.716 1086.72 191.327 1054.26 90.9062ZM639.6 95.668C578.072 95.3227 516.544 95.2069 455.016 95.3223V424.73H671.401V365.34H514.47V290.066H671.401V230.677H514.47V154.713H671.401C671.646 151.856 671.3 149.093 670.364 146.426C660.023 129.564 649.768 112.644 639.6 95.668ZM2028 90.2666C2057.48 90.2852 2075.61 90.3146 2078.05 90.3564C2096.1 147.04 2089.81 203.683 2108.14 260.282V330.252H2121.79V388.408H2108.14V423.848C2104.61 423.848 2074.69 423.847 2028 423.848V90.2666ZM1252.61 167.599C1253.52 221.664 1253.82 275.882 1253.52 330.255C1235.61 330.557 1217.73 330.254 1199.84 329.346C1217.62 275.475 1235.2 221.559 1252.61 167.599Z" fill="#333333"/>
</svg>
