<svg width="962" height="409" viewBox="0 0 962 409" fill="none" xmlns="http://www.w3.org/2000/svg">
<g clip-path="url(#clip0_3_2006)">
<rect width="962" height="409" rx="60" fill="#D31907"/>
<path fill-rule="evenodd" clip-rule="evenodd" d="M619 -0.811523C728.244 -0.811523 953.415 -0.811523 1062.66 -0.811523C1062.66 135.801 1062.66 272.412 1062.66 409.024C964.726 409.024 750.858 409.024 652.925 409.024C653.033 306.938 652.925 204.852 652.605 102.766C641.333 68.2487 630.131 33.7227 619 -0.811523Z" fill="#3A3B3A"/>
<path fill-rule="evenodd" clip-rule="evenodd" d="M260.219 357.424C245.364 346.101 230.712 334.461 216.263 322.504C216.058 322.621 215.972 322.792 216.006 323.017C167.337 323.017 118.669 323.017 70 323.017C70 241.366 70 159.715 70 78.0644C86.7941 78.0644 103.588 78.0644 120.382 78.0644C120.382 143.111 120.382 208.158 120.382 273.205C152.257 273.205 184.131 273.205 216.006 273.205C216.006 208.158 216.006 143.111 216.006 78.0644C230.744 78.0644 245.481 78.0644 260.219 78.0644C260.219 171.184 260.219 264.304 260.219 357.424Z" fill="white"/>
<path fill-rule="evenodd" clip-rule="evenodd" d="M279.755 78.064C325.511 77.9782 371.266 78.064 417.021 78.3207C424.582 90.9448 432.208 103.526 439.899 116.065C440.595 118.049 440.852 120.103 440.67 122.227C401.769 122.227 362.869 122.227 323.968 122.227C323.968 141.057 323.968 159.886 323.968 178.715C362.869 178.715 401.769 178.715 440.67 178.715C440.67 193.437 440.67 208.158 440.67 222.879C401.769 222.879 362.869 222.879 323.968 222.879C323.968 241.537 323.968 260.195 323.968 278.853C362.869 278.853 401.769 278.853 440.67 278.853C440.67 293.575 440.67 308.295 440.67 323.017C387.032 323.017 333.393 323.017 279.755 323.017C279.755 241.366 279.755 159.715 279.755 78.064Z" fill="white"/>
<path fill-rule="evenodd" clip-rule="evenodd" d="M440.156 78.0641C457.468 77.8931 474.776 78.0641 492.081 78.5776C507.803 105.024 523.655 131.385 539.635 157.661C555.385 131.233 571.238 104.871 587.19 78.5776C597.303 77.8931 607.41 77.8931 617.522 78.5776C620.026 86.0782 622.427 93.6096 624.72 101.173C624.679 102.097 624.422 102.953 623.949 103.741C604.5 136.093 585.046 168.445 565.598 200.797C590.059 241.281 614.397 281.849 638.601 322.503C621.466 323.103 604.331 323.188 587.19 322.76C571.145 296.612 555.293 270.337 539.635 243.934C523.74 270.038 507.974 296.228 492.338 322.503C481.838 323.013 471.299 323.185 460.72 323.017C460.634 311.376 460.72 299.736 460.977 288.097C478.441 258.93 496.006 229.83 513.673 200.797C489.026 159.943 464.521 119.032 440.156 78.0641Z" fill="white"/>
<path fill-rule="evenodd" clip-rule="evenodd" d="M675.617 133.525C689.452 133.356 703.245 133.527 717.003 134.038C735.372 190.887 753.797 247.718 772.269 304.529C770.249 310.631 768.192 316.707 766.1 322.76C758.095 323.183 750.126 323.097 742.194 322.503C732.863 293.941 723.609 265.354 714.432 236.744C714.175 265.501 714.088 294.258 714.175 323.016C701.322 323.016 688.47 323.016 675.617 323.016C675.617 259.852 675.617 196.689 675.617 133.525Z" fill="white"/>
<path fill-rule="evenodd" clip-rule="evenodd" d="M862.749 230.067C852.389 198.081 842.107 166.072 831.902 134.038C842.267 133.526 852.718 133.355 863.263 133.524C863.432 165.792 863.263 197.973 862.749 230.067Z" fill="#D31907"/>
<path fill-rule="evenodd" clip-rule="evenodd" d="M831.903 134.037C842.108 166.071 852.39 198.081 862.749 230.067C862.749 243.248 862.749 256.428 862.749 269.609C865.32 269.609 867.89 269.609 870.461 269.609C870.461 280.564 870.461 291.519 870.461 302.474C867.89 302.474 865.32 302.474 862.749 302.474C862.749 309.15 862.749 315.826 862.749 322.502C851.783 322.502 840.812 322.502 829.846 322.502C829.846 315.826 829.846 309.15 829.846 302.474C815.796 302.474 801.74 302.474 787.69 302.474C781.269 281.607 774.585 260.809 767.64 240.081C778.965 204.853 790.451 169.677 802.085 134.551C812.017 134.037 821.96 133.866 831.903 134.037Z" fill="white"/>
<path fill-rule="evenodd" clip-rule="evenodd" d="M829.333 177.688C829.847 208.242 830.017 238.882 829.847 269.61C819.729 269.781 809.622 269.61 799.515 269.096C809.56 238.652 819.498 208.183 829.333 177.688Z" fill="#3A3B3A"/>
<path fill-rule="evenodd" clip-rule="evenodd" d="M260.22 357.423C245.571 357.935 230.833 358.106 216.007 357.936C216.007 346.296 216.007 334.657 216.007 323.017C215.974 322.792 216.059 322.62 216.264 322.503C230.714 334.461 245.366 346.1 260.22 357.423Z" fill="#3A3B3A"/>
</g>
<defs>
<clipPath id="clip0_3_2006">
<rect width="962" height="409" rx="60" fill="white"/>
</clipPath>
</defs>
</svg>
