<svg width="1591" height="409" viewBox="0 0 1591 409" fill="none" xmlns="http://www.w3.org/2000/svg">
<g clip-path="url(#clip0_182_9154)">
<rect width="1591" height="409" rx="60" fill="url(#paint0_linear_182_9154)"/>
<path fill-rule="evenodd" clip-rule="evenodd" d="M1233 -0.811523C1342.24 -0.811523 1567.42 -0.811523 1676.66 -0.811523C1676.66 135.801 1676.66 272.412 1676.66 409.024C1578.73 409.024 1364.86 409.024 1266.92 409.024C1267.03 306.938 1266.92 204.852 1266.6 102.766C1255.33 68.2487 1244.13 33.7227 1233 -0.811523Z" fill="#3A3B3A"/>
<path fill-rule="evenodd" clip-rule="evenodd" d="M874.219 357.424C859.364 346.101 844.712 334.461 830.263 322.504C830.058 322.621 829.972 322.792 830.006 323.017C781.337 323.017 732.669 323.017 684 323.017C684 241.366 684 159.715 684 78.0643C700.794 78.0643 717.588 78.0643 734.382 78.0643C734.382 143.111 734.382 208.158 734.382 273.205C766.257 273.205 798.131 273.205 830.006 273.205C830.006 208.158 830.006 143.111 830.006 78.0643C844.744 78.0643 859.481 78.0643 874.219 78.0643C874.219 171.184 874.219 264.304 874.219 357.424Z" fill="white"/>
<path fill-rule="evenodd" clip-rule="evenodd" d="M893.758 78.0639C939.514 77.9781 985.269 78.0639 1031.02 78.3207C1038.59 90.9447 1046.21 103.526 1053.9 116.065C1054.6 118.049 1054.85 120.103 1054.67 122.227C1015.77 122.227 976.872 122.227 937.971 122.227C937.971 141.057 937.971 159.886 937.971 178.715C976.872 178.715 1015.77 178.715 1054.67 178.715C1054.67 193.437 1054.67 208.157 1054.67 222.879C1015.77 222.879 976.872 222.879 937.971 222.879C937.971 241.537 937.971 260.195 937.971 278.853C976.872 278.853 1015.77 278.853 1054.67 278.853C1054.67 293.575 1054.67 308.295 1054.67 323.017C1001.03 323.017 947.396 323.017 893.758 323.017C893.758 241.366 893.758 159.715 893.758 78.0639Z" fill="white"/>
<path fill-rule="evenodd" clip-rule="evenodd" d="M1054.16 78.0641C1071.47 77.8931 1088.78 78.0641 1106.08 78.5776C1121.8 105.024 1137.65 131.385 1153.64 157.661C1169.38 131.233 1185.24 104.871 1201.19 78.5776C1211.3 77.8931 1221.41 77.8931 1231.52 78.5776C1234.03 86.0782 1236.43 93.6096 1238.72 101.173C1238.68 102.097 1238.42 102.953 1237.95 103.741C1218.5 136.093 1199.05 168.445 1179.6 200.797C1204.06 241.281 1228.4 281.849 1252.6 322.503C1235.47 323.103 1218.33 323.188 1201.19 322.76C1185.15 296.612 1169.29 270.337 1153.64 243.934C1137.74 270.038 1121.97 296.228 1106.34 322.503C1095.84 323.013 1085.3 323.185 1074.72 323.017C1074.63 311.376 1074.72 299.736 1074.98 288.097C1092.44 258.93 1110.01 229.83 1127.67 200.797C1103.03 159.943 1078.52 119.032 1054.16 78.0641Z" fill="white"/>
<path fill-rule="evenodd" clip-rule="evenodd" d="M1289.62 133.525C1303.45 133.356 1317.25 133.527 1331 134.038C1349.37 190.887 1367.8 247.718 1386.27 304.529C1384.25 310.631 1382.19 316.707 1380.1 322.76C1372.1 323.183 1364.13 323.097 1356.19 322.503C1346.86 293.941 1337.61 265.354 1328.43 236.744C1328.18 265.501 1328.09 294.258 1328.18 323.016C1315.32 323.016 1302.47 323.016 1289.62 323.016C1289.62 259.852 1289.62 196.689 1289.62 133.525Z" fill="white"/>
<path fill-rule="evenodd" clip-rule="evenodd" d="M1476.75 230.067C1466.39 198.081 1456.11 166.072 1445.91 134.038C1456.27 133.526 1466.72 133.355 1477.27 133.524C1477.44 165.792 1477.27 197.973 1476.75 230.067Z" fill="#D31907"/>
<path fill-rule="evenodd" clip-rule="evenodd" d="M1445.9 134.037C1456.11 166.071 1466.39 198.081 1476.75 230.067C1476.75 243.248 1476.75 256.428 1476.75 269.609C1479.32 269.609 1481.89 269.609 1484.46 269.609C1484.46 280.564 1484.46 291.519 1484.46 302.474C1481.89 302.474 1479.32 302.474 1476.75 302.474C1476.75 309.15 1476.75 315.826 1476.75 322.502C1465.78 322.502 1454.81 322.502 1443.85 322.502C1443.85 315.826 1443.85 309.15 1443.85 302.474C1429.8 302.474 1415.74 302.474 1401.69 302.474C1395.27 281.607 1388.59 260.809 1381.64 240.081C1392.97 204.853 1404.45 169.677 1416.09 134.551C1426.02 134.037 1435.96 133.866 1445.9 134.037Z" fill="white"/>
<path fill-rule="evenodd" clip-rule="evenodd" d="M1443.33 177.688C1443.85 208.242 1444.02 238.882 1443.85 269.61C1433.73 269.781 1423.62 269.61 1413.52 269.096C1423.56 238.652 1433.5 208.183 1443.33 177.688Z" fill="#3A3B3A"/>
<path fill-rule="evenodd" clip-rule="evenodd" d="M874.22 357.423C859.571 357.935 844.833 358.106 830.007 357.936C830.007 346.296 830.007 334.657 830.007 323.017C829.974 322.792 830.059 322.62 830.264 322.503C844.714 334.461 859.366 346.1 874.22 357.423Z" fill="#3A3B3A"/>
<path d="M116.545 142.727C116.545 147.697 115.636 151.97 113.818 155.545C112 159.106 109.508 161.848 106.341 163.773C103.189 165.682 99.6061 166.636 95.5909 166.636C91.5606 166.636 87.9621 165.682 84.7955 163.773C81.6439 161.848 79.1591 159.098 77.3409 155.523C75.5227 151.947 74.6136 147.682 74.6136 142.727C74.6136 137.758 75.5227 133.492 77.3409 129.932C79.1591 126.356 81.6439 123.614 84.7955 121.705C87.9621 119.78 91.5606 118.818 95.5909 118.818C99.6061 118.818 103.189 119.78 106.341 121.705C109.508 123.614 112 126.356 113.818 129.932C115.636 133.492 116.545 137.758 116.545 142.727ZM109.591 142.727C109.591 138.939 108.977 135.75 107.75 133.159C106.538 130.553 104.871 128.583 102.75 127.25C100.644 125.902 98.2576 125.227 95.5909 125.227C92.9091 125.227 90.5152 125.902 88.4091 127.25C86.303 128.583 84.6364 130.553 83.4091 133.159C82.197 135.75 81.5909 138.939 81.5909 142.727C81.5909 146.515 82.197 149.712 83.4091 152.318C84.6364 154.909 86.303 156.879 88.4091 158.227C90.5152 159.561 92.9091 160.227 95.5909 160.227C98.2576 160.227 100.644 159.561 102.75 158.227C104.871 156.879 106.538 154.909 107.75 152.318C108.977 149.712 109.591 146.515 109.591 142.727ZM147.688 118.091L150.506 122.386C149.46 123.341 148.271 124.023 146.938 124.432C145.619 124.826 144.097 125.076 142.369 125.182C140.642 125.273 138.665 125.356 136.438 125.432C133.922 125.508 131.854 126.053 130.233 127.068C128.612 128.068 127.362 129.553 126.483 131.523C125.619 133.477 125.059 135.932 124.801 138.886H125.233C126.369 136.72 127.945 135.098 129.96 134.023C131.991 132.947 134.271 132.409 136.801 132.409C139.619 132.409 142.127 133.053 144.324 134.341C146.521 135.629 148.248 137.515 149.506 140C150.778 142.47 151.415 145.492 151.415 149.068C151.415 152.689 150.748 155.818 149.415 158.455C148.097 161.091 146.233 163.129 143.824 164.568C141.43 165.992 138.604 166.705 135.347 166.705C132.089 166.705 129.248 165.97 126.824 164.5C124.415 163.015 122.544 160.818 121.21 157.909C119.892 155 119.233 151.409 119.233 147.136V143.682C119.233 135.697 120.657 129.689 123.506 125.659C126.354 121.629 130.612 119.561 136.278 119.455C138.112 119.409 139.748 119.402 141.188 119.432C142.627 119.447 143.884 119.379 144.96 119.227C146.051 119.061 146.96 118.682 147.688 118.091ZM135.369 161C137.263 161 138.892 160.523 140.256 159.568C141.634 158.598 142.695 157.227 143.438 155.455C144.18 153.682 144.551 151.591 144.551 149.182C144.551 146.818 144.18 144.811 143.438 143.159C142.695 141.508 141.634 140.25 140.256 139.386C138.877 138.508 137.225 138.068 135.301 138.068C133.877 138.068 132.604 138.318 131.483 138.818C130.362 139.303 129.4 140.023 128.597 140.977C127.809 141.932 127.195 143.098 126.756 144.477C126.331 145.841 126.104 147.409 126.074 149.182C126.074 152.788 126.9 155.659 128.551 157.795C130.218 159.932 132.491 161 135.369 161ZM169.71 166.705C166.331 166.705 163.422 165.939 160.983 164.409C158.559 162.864 156.695 160.735 155.392 158.023C154.089 155.311 153.438 152.205 153.438 148.705C153.438 145.159 154.104 142.03 155.438 139.318C156.771 136.591 158.65 134.462 161.074 132.932C163.498 131.402 166.354 130.636 169.642 130.636C172.294 130.636 174.657 131.129 176.733 132.114C178.809 133.083 180.483 134.447 181.756 136.205C183.044 137.962 183.809 140.015 184.051 142.364H177.438C177.074 140.727 176.241 139.318 174.938 138.136C173.65 136.955 171.922 136.364 169.756 136.364C167.862 136.364 166.203 136.864 164.778 137.864C163.369 138.848 162.271 140.258 161.483 142.091C160.695 143.909 160.301 146.061 160.301 148.545C160.301 151.091 160.688 153.288 161.46 155.136C162.233 156.985 163.324 158.417 164.733 159.432C166.157 160.447 167.831 160.955 169.756 160.955C171.044 160.955 172.21 160.72 173.256 160.25C174.316 159.765 175.203 159.076 175.915 158.182C176.642 157.288 177.15 156.212 177.438 154.955H184.051C183.809 157.212 183.074 159.227 181.847 161C180.619 162.773 178.975 164.167 176.915 165.182C174.869 166.197 172.468 166.705 169.71 166.705ZM184.568 166L184.545 160.114H185.795C186.765 160.114 187.576 159.909 188.227 159.5C188.894 159.076 189.439 158.364 189.864 157.364C190.288 156.364 190.614 154.985 190.841 153.227C191.068 151.455 191.235 149.227 191.341 146.545L191.955 131.091H216.318V166H209.659V136.955H198.25L197.705 148.818C197.568 151.697 197.273 154.212 196.818 156.364C196.379 158.515 195.735 160.311 194.886 161.75C194.038 163.174 192.947 164.242 191.614 164.955C190.28 165.652 188.659 166 186.75 166H184.568ZM236.426 166.705C232.987 166.705 230.025 165.97 227.54 164.5C225.07 163.015 223.161 160.932 221.812 158.25C220.479 155.553 219.812 152.394 219.812 148.773C219.812 145.197 220.479 142.045 221.812 139.318C223.161 136.591 225.04 134.462 227.449 132.932C229.873 131.402 232.706 130.636 235.949 130.636C237.919 130.636 239.828 130.962 241.676 131.614C243.525 132.265 245.184 133.288 246.653 134.682C248.123 136.076 249.282 137.886 250.131 140.114C250.979 142.326 251.403 145.015 251.403 148.182V150.591H223.653V145.5H244.744C244.744 143.712 244.381 142.129 243.653 140.75C242.926 139.356 241.903 138.258 240.585 137.455C239.282 136.652 237.752 136.25 235.994 136.25C234.085 136.25 232.419 136.72 230.994 137.659C229.585 138.583 228.494 139.795 227.722 141.295C226.964 142.78 226.585 144.394 226.585 146.136V150.114C226.585 152.447 226.994 154.432 227.812 156.068C228.646 157.705 229.805 158.955 231.29 159.818C232.775 160.667 234.509 161.091 236.494 161.091C237.782 161.091 238.956 160.909 240.017 160.545C241.078 160.167 241.994 159.606 242.767 158.864C243.54 158.121 244.131 157.205 244.54 156.114L250.972 157.273C250.456 159.167 249.532 160.826 248.199 162.25C246.881 163.659 245.222 164.758 243.222 165.545C241.237 166.318 238.972 166.705 236.426 166.705ZM251.534 176.068V160.114H254.375C255.102 159.447 255.716 158.652 256.216 157.727C256.731 156.803 257.163 155.705 257.511 154.432C257.875 153.159 258.178 151.674 258.42 149.977C258.663 148.265 258.875 146.311 259.057 144.114L260.148 131.091H283.875V160.114H289.239V176.068H282.602V166H258.261V176.068H251.534ZM261.648 160.114H277.239V136.909H266.239L265.511 144.114C265.163 147.78 264.723 150.962 264.193 153.659C263.663 156.341 262.814 158.492 261.648 160.114ZM306.585 166.705C303.313 166.705 300.456 165.955 298.017 164.455C295.578 162.955 293.684 160.856 292.335 158.159C290.987 155.462 290.312 152.311 290.312 148.705C290.312 145.083 290.987 141.917 292.335 139.205C293.684 136.492 295.578 134.386 298.017 132.886C300.456 131.386 303.313 130.636 306.585 130.636C309.858 130.636 312.714 131.386 315.153 132.886C317.593 134.386 319.487 136.492 320.835 139.205C322.184 141.917 322.858 145.083 322.858 148.705C322.858 152.311 322.184 155.462 320.835 158.159C319.487 160.856 317.593 162.955 315.153 164.455C312.714 165.955 309.858 166.705 306.585 166.705ZM306.608 161C308.729 161 310.487 160.439 311.881 159.318C313.275 158.197 314.305 156.705 314.972 154.841C315.653 152.977 315.994 150.924 315.994 148.682C315.994 146.455 315.653 144.409 314.972 142.545C314.305 140.667 313.275 139.159 311.881 138.023C310.487 136.886 308.729 136.318 306.608 136.318C304.472 136.318 302.699 136.886 301.29 138.023C299.896 139.159 298.858 140.667 298.176 142.545C297.509 144.409 297.176 146.455 297.176 148.682C297.176 150.924 297.509 152.977 298.176 154.841C298.858 156.705 299.896 158.197 301.29 159.318C302.699 160.439 304.472 161 306.608 161ZM326.443 166V131.091H340.92C344.86 131.091 347.981 131.932 350.284 133.614C352.587 135.28 353.739 137.545 353.739 140.409C353.739 142.455 353.087 144.076 351.784 145.273C350.481 146.47 348.754 147.273 346.602 147.682C348.163 147.864 349.595 148.333 350.898 149.091C352.201 149.833 353.246 150.833 354.034 152.091C354.837 153.348 355.239 154.848 355.239 156.591C355.239 158.439 354.761 160.076 353.807 161.5C352.852 162.909 351.466 164.015 349.648 164.818C347.845 165.606 345.67 166 343.125 166H326.443ZM332.83 160.318H343.125C344.807 160.318 346.125 159.917 347.08 159.114C348.034 158.311 348.511 157.22 348.511 155.841C348.511 154.22 348.034 152.947 347.08 152.023C346.125 151.083 344.807 150.614 343.125 150.614H332.83V160.318ZM332.83 145.636H340.989C342.261 145.636 343.352 145.455 344.261 145.091C345.186 144.727 345.89 144.212 346.375 143.545C346.875 142.864 347.125 142.061 347.125 141.136C347.125 139.788 346.572 138.735 345.466 137.977C344.36 137.22 342.845 136.841 340.92 136.841H332.83V145.636ZM368.852 166.773C366.64 166.773 364.64 166.364 362.852 165.545C361.064 164.712 359.648 163.508 358.602 161.932C357.572 160.356 357.057 158.424 357.057 156.136C357.057 154.167 357.436 152.545 358.193 151.273C358.951 150 359.973 148.992 361.261 148.25C362.549 147.508 363.989 146.947 365.58 146.568C367.17 146.189 368.792 145.902 370.443 145.705C372.534 145.462 374.231 145.265 375.534 145.114C376.837 144.947 377.784 144.682 378.375 144.318C378.966 143.955 379.261 143.364 379.261 142.545V142.386C379.261 140.402 378.701 138.864 377.58 137.773C376.473 136.682 374.822 136.136 372.625 136.136C370.337 136.136 368.534 136.644 367.216 137.659C365.913 138.659 365.011 139.773 364.511 141L358.125 139.545C358.883 137.424 359.989 135.712 361.443 134.409C362.913 133.091 364.602 132.136 366.511 131.545C368.42 130.939 370.428 130.636 372.534 130.636C373.928 130.636 375.405 130.803 376.966 131.136C378.542 131.455 380.011 132.045 381.375 132.909C382.754 133.773 383.883 135.008 384.761 136.614C385.64 138.205 386.08 140.273 386.08 142.818V166H379.443V161.227H379.17C378.731 162.106 378.072 162.97 377.193 163.818C376.314 164.667 375.186 165.371 373.807 165.932C372.428 166.492 370.777 166.773 368.852 166.773ZM370.33 161.318C372.208 161.318 373.814 160.947 375.148 160.205C376.496 159.462 377.519 158.492 378.216 157.295C378.928 156.083 379.284 154.788 379.284 153.409V148.909C379.042 149.152 378.572 149.379 377.875 149.591C377.193 149.788 376.413 149.962 375.534 150.114C374.655 150.25 373.799 150.379 372.966 150.5C372.133 150.606 371.436 150.697 370.875 150.773C369.557 150.939 368.352 151.22 367.261 151.614C366.186 152.008 365.322 152.576 364.67 153.318C364.034 154.045 363.716 155.015 363.716 156.227C363.716 157.909 364.337 159.182 365.58 160.045C366.822 160.894 368.405 161.318 370.33 161.318ZM414.79 145.614V151.5H395.881V145.614H414.79ZM397.79 131.091V166H391.131V131.091H397.79ZM419.54 131.091V166H412.903V131.091H419.54ZM431.29 156.477L446.676 131.091H453.994V166H447.335V140.591L432.017 166H424.631V131.091H431.29V156.477ZM474.176 166.705C470.737 166.705 467.775 165.97 465.29 164.5C462.82 163.015 460.911 160.932 459.562 158.25C458.229 155.553 457.562 152.394 457.562 148.773C457.562 145.197 458.229 142.045 459.562 139.318C460.911 136.591 462.79 134.462 465.199 132.932C467.623 131.402 470.456 130.636 473.699 130.636C475.669 130.636 477.578 130.962 479.426 131.614C481.275 132.265 482.934 133.288 484.403 134.682C485.873 136.076 487.032 137.886 487.881 140.114C488.729 142.326 489.153 145.015 489.153 148.182V150.591H461.403V145.5H482.494C482.494 143.712 482.131 142.129 481.403 140.75C480.676 139.356 479.653 138.258 478.335 137.455C477.032 136.652 475.502 136.25 473.744 136.25C471.835 136.25 470.169 136.72 468.744 137.659C467.335 138.583 466.244 139.795 465.472 141.295C464.714 142.78 464.335 144.394 464.335 146.136V150.114C464.335 152.447 464.744 154.432 465.562 156.068C466.396 157.705 467.555 158.955 469.04 159.818C470.525 160.667 472.259 161.091 474.244 161.091C475.532 161.091 476.706 160.909 477.767 160.545C478.828 160.167 479.744 159.606 480.517 158.864C481.29 158.121 481.881 157.205 482.29 156.114L488.722 157.273C488.206 159.167 487.282 160.826 485.949 162.25C484.631 163.659 482.972 164.758 480.972 165.545C478.987 166.318 476.722 166.705 474.176 166.705ZM512.29 156.477L527.676 131.091H534.994V166H528.335V140.591L513.017 166H505.631V131.091H512.29V156.477ZM75.5682 225V190.091H104.045V225H97.3864V195.955H82.1818V225H75.5682ZM109.131 238.091V190.091H115.767V195.75H116.335C116.729 195.023 117.297 194.182 118.04 193.227C118.782 192.273 119.813 191.439 121.131 190.727C122.449 190 124.191 189.636 126.358 189.636C129.176 189.636 131.691 190.348 133.903 191.773C136.116 193.197 137.85 195.25 139.108 197.932C140.381 200.614 141.017 203.841 141.017 207.614C141.017 211.386 140.388 214.621 139.131 217.318C137.873 220 136.146 222.068 133.949 223.523C131.752 224.962 129.244 225.682 126.426 225.682C124.305 225.682 122.57 225.326 121.222 224.614C119.888 223.902 118.843 223.068 118.085 222.114C117.328 221.159 116.744 220.311 116.335 219.568H115.926V238.091H109.131ZM115.79 207.545C115.79 210 116.146 212.152 116.858 214C117.57 215.848 118.6 217.295 119.949 218.341C121.297 219.371 122.949 219.886 124.903 219.886C126.934 219.886 128.631 219.348 129.994 218.273C131.358 217.182 132.388 215.705 133.085 213.841C133.797 211.977 134.153 209.879 134.153 207.545C134.153 205.242 133.805 203.174 133.108 201.341C132.426 199.508 131.396 198.061 130.017 197C128.653 195.939 126.949 195.409 124.903 195.409C122.934 195.409 121.267 195.917 119.903 196.932C118.555 197.947 117.532 199.364 116.835 201.182C116.138 203 115.79 205.121 115.79 207.545ZM159.335 225.705C156.063 225.705 153.206 224.955 150.767 223.455C148.328 221.955 146.434 219.856 145.085 217.159C143.737 214.462 143.062 211.311 143.062 207.705C143.062 204.083 143.737 200.917 145.085 198.205C146.434 195.492 148.328 193.386 150.767 191.886C153.206 190.386 156.063 189.636 159.335 189.636C162.608 189.636 165.464 190.386 167.903 191.886C170.343 193.386 172.237 195.492 173.585 198.205C174.934 200.917 175.608 204.083 175.608 207.705C175.608 211.311 174.934 214.462 173.585 217.159C172.237 219.856 170.343 221.955 167.903 223.455C165.464 224.955 162.608 225.705 159.335 225.705ZM159.358 220C161.479 220 163.237 219.439 164.631 218.318C166.025 217.197 167.055 215.705 167.722 213.841C168.403 211.977 168.744 209.924 168.744 207.682C168.744 205.455 168.403 203.409 167.722 201.545C167.055 199.667 166.025 198.159 164.631 197.023C163.237 195.886 161.479 195.318 159.358 195.318C157.222 195.318 155.449 195.886 154.04 197.023C152.646 198.159 151.608 199.667 150.926 201.545C150.259 203.409 149.926 205.455 149.926 207.682C149.926 209.924 150.259 211.977 150.926 213.841C151.608 215.705 152.646 217.197 154.04 218.318C155.449 219.439 157.222 220 159.358 220ZM194.239 225.705C190.799 225.705 187.837 224.97 185.352 223.5C182.883 222.015 180.973 219.932 179.625 217.25C178.292 214.553 177.625 211.394 177.625 207.773C177.625 204.197 178.292 201.045 179.625 198.318C180.973 195.591 182.852 193.462 185.261 191.932C187.686 190.402 190.519 189.636 193.761 189.636C195.731 189.636 197.64 189.962 199.489 190.614C201.337 191.265 202.996 192.288 204.466 193.682C205.936 195.076 207.095 196.886 207.943 199.114C208.792 201.326 209.216 204.015 209.216 207.182V209.591H181.466V204.5H202.557C202.557 202.712 202.193 201.129 201.466 199.75C200.739 198.356 199.716 197.258 198.398 196.455C197.095 195.652 195.564 195.25 193.807 195.25C191.898 195.25 190.231 195.72 188.807 196.659C187.398 197.583 186.307 198.795 185.534 200.295C184.777 201.78 184.398 203.394 184.398 205.136V209.114C184.398 211.447 184.807 213.432 185.625 215.068C186.458 216.705 187.617 217.955 189.102 218.818C190.587 219.667 192.322 220.091 194.307 220.091C195.595 220.091 196.769 219.909 197.83 219.545C198.89 219.167 199.807 218.606 200.58 217.864C201.352 217.121 201.943 216.205 202.352 215.114L208.784 216.273C208.269 218.167 207.345 219.826 206.011 221.25C204.693 222.659 203.034 223.758 201.034 224.545C199.049 225.318 196.784 225.705 194.239 225.705ZM212.756 225V190.091H219.551V204.727H222.824L234.347 190.091H242.756L229.233 207.068L242.915 225H234.483L223.96 211.045H219.551V225H212.756ZM242.239 195.955V190.091H271.693V195.955H260.307V225H253.67V195.955H242.239ZM281.54 215.477L296.926 190.091H304.244V225H297.585V199.591L282.267 225H274.881V190.091H281.54V215.477ZM309.381 238.091V190.091H316.017V195.75H316.585C316.979 195.023 317.547 194.182 318.29 193.227C319.032 192.273 320.063 191.439 321.381 190.727C322.699 190 324.441 189.636 326.608 189.636C329.426 189.636 331.941 190.348 334.153 191.773C336.366 193.197 338.1 195.25 339.358 197.932C340.631 200.614 341.267 203.841 341.267 207.614C341.267 211.386 340.638 214.621 339.381 217.318C338.123 220 336.396 222.068 334.199 223.523C332.002 224.962 329.494 225.682 326.676 225.682C324.555 225.682 322.82 225.326 321.472 224.614C320.138 223.902 319.093 223.068 318.335 222.114C317.578 221.159 316.994 220.311 316.585 219.568H316.176V238.091H309.381ZM316.04 207.545C316.04 210 316.396 212.152 317.108 214C317.82 215.848 318.85 217.295 320.199 218.341C321.547 219.371 323.199 219.886 325.153 219.886C327.184 219.886 328.881 219.348 330.244 218.273C331.608 217.182 332.638 215.705 333.335 213.841C334.047 211.977 334.403 209.879 334.403 207.545C334.403 205.242 334.055 203.174 333.358 201.341C332.676 199.508 331.646 198.061 330.267 197C328.903 195.939 327.199 195.409 325.153 195.409C323.184 195.409 321.517 195.917 320.153 196.932C318.805 197.947 317.782 199.364 317.085 201.182C316.388 203 316.04 205.121 316.04 207.545ZM359.585 225.705C356.313 225.705 353.456 224.955 351.017 223.455C348.578 221.955 346.684 219.856 345.335 217.159C343.987 214.462 343.312 211.311 343.312 207.705C343.312 204.083 343.987 200.917 345.335 198.205C346.684 195.492 348.578 193.386 351.017 191.886C353.456 190.386 356.313 189.636 359.585 189.636C362.858 189.636 365.714 190.386 368.153 191.886C370.593 193.386 372.487 195.492 373.835 198.205C375.184 200.917 375.858 204.083 375.858 207.705C375.858 211.311 375.184 214.462 373.835 217.159C372.487 219.856 370.593 221.955 368.153 223.455C365.714 224.955 362.858 225.705 359.585 225.705ZM359.608 220C361.729 220 363.487 219.439 364.881 218.318C366.275 217.197 367.305 215.705 367.972 213.841C368.653 211.977 368.994 209.924 368.994 207.682C368.994 205.455 368.653 203.409 367.972 201.545C367.305 199.667 366.275 198.159 364.881 197.023C363.487 195.886 361.729 195.318 359.608 195.318C357.472 195.318 355.699 195.886 354.29 197.023C352.896 198.159 351.858 199.667 351.176 201.545C350.509 203.409 350.176 205.455 350.176 207.682C350.176 209.924 350.509 211.977 351.176 213.841C351.858 215.705 352.896 217.197 354.29 218.318C355.699 219.439 357.472 220 359.608 220ZM379.443 225V190.091H393.92C397.86 190.091 400.981 190.932 403.284 192.614C405.587 194.28 406.739 196.545 406.739 199.409C406.739 201.455 406.087 203.076 404.784 204.273C403.481 205.47 401.754 206.273 399.602 206.682C401.163 206.864 402.595 207.333 403.898 208.091C405.201 208.833 406.246 209.833 407.034 211.091C407.837 212.348 408.239 213.848 408.239 215.591C408.239 217.439 407.761 219.076 406.807 220.5C405.852 221.909 404.466 223.015 402.648 223.818C400.845 224.606 398.67 225 396.125 225H379.443ZM385.83 219.318H396.125C397.807 219.318 399.125 218.917 400.08 218.114C401.034 217.311 401.511 216.22 401.511 214.841C401.511 213.22 401.034 211.947 400.08 211.023C399.125 210.083 397.807 209.614 396.125 209.614H385.83V219.318ZM385.83 204.636H393.989C395.261 204.636 396.352 204.455 397.261 204.091C398.186 203.727 398.89 203.212 399.375 202.545C399.875 201.864 400.125 201.061 400.125 200.136C400.125 198.788 399.572 197.735 398.466 196.977C397.36 196.22 395.845 195.841 393.92 195.841H385.83V204.636ZM421.852 225.773C419.64 225.773 417.64 225.364 415.852 224.545C414.064 223.712 412.648 222.508 411.602 220.932C410.572 219.356 410.057 217.424 410.057 215.136C410.057 213.167 410.436 211.545 411.193 210.273C411.951 209 412.973 207.992 414.261 207.25C415.549 206.508 416.989 205.947 418.58 205.568C420.17 205.189 421.792 204.902 423.443 204.705C425.534 204.462 427.231 204.265 428.534 204.114C429.837 203.947 430.784 203.682 431.375 203.318C431.966 202.955 432.261 202.364 432.261 201.545V201.386C432.261 199.402 431.701 197.864 430.58 196.773C429.473 195.682 427.822 195.136 425.625 195.136C423.337 195.136 421.534 195.644 420.216 196.659C418.913 197.659 418.011 198.773 417.511 200L411.125 198.545C411.883 196.424 412.989 194.712 414.443 193.409C415.913 192.091 417.602 191.136 419.511 190.545C421.42 189.939 423.428 189.636 425.534 189.636C426.928 189.636 428.405 189.803 429.966 190.136C431.542 190.455 433.011 191.045 434.375 191.909C435.754 192.773 436.883 194.008 437.761 195.614C438.64 197.205 439.08 199.273 439.08 201.818V225H432.443V220.227H432.17C431.731 221.106 431.072 221.97 430.193 222.818C429.314 223.667 428.186 224.371 426.807 224.932C425.428 225.492 423.777 225.773 421.852 225.773ZM423.33 220.318C425.208 220.318 426.814 219.947 428.148 219.205C429.496 218.462 430.519 217.492 431.216 216.295C431.928 215.083 432.284 213.788 432.284 212.409V207.909C432.042 208.152 431.572 208.379 430.875 208.591C430.193 208.788 429.413 208.962 428.534 209.114C427.655 209.25 426.799 209.379 425.966 209.5C425.133 209.606 424.436 209.697 423.875 209.773C422.557 209.939 421.352 210.22 420.261 210.614C419.186 211.008 418.322 211.576 417.67 212.318C417.034 213.045 416.716 214.015 416.716 215.227C416.716 216.909 417.337 218.182 418.58 219.045C419.822 219.894 421.405 220.318 423.33 220.318ZM467.79 204.614V210.5H448.881V204.614H467.79ZM450.79 190.091V225H444.131V190.091H450.79ZM472.54 190.091V225H465.903V190.091H472.54ZM484.29 215.477L499.676 190.091H506.994V225H500.335V199.591L485.017 225H477.631V190.091H484.29V215.477ZM527.176 225.705C523.737 225.705 520.775 224.97 518.29 223.5C515.82 222.015 513.911 219.932 512.562 217.25C511.229 214.553 510.562 211.394 510.562 207.773C510.562 204.197 511.229 201.045 512.562 198.318C513.911 195.591 515.79 193.462 518.199 191.932C520.623 190.402 523.456 189.636 526.699 189.636C528.669 189.636 530.578 189.962 532.426 190.614C534.275 191.265 535.934 192.288 537.403 193.682C538.873 195.076 540.032 196.886 540.881 199.114C541.729 201.326 542.153 204.015 542.153 207.182V209.591H514.403V204.5H535.494C535.494 202.712 535.131 201.129 534.403 199.75C533.676 198.356 532.653 197.258 531.335 196.455C530.032 195.652 528.502 195.25 526.744 195.25C524.835 195.25 523.169 195.72 521.744 196.659C520.335 197.583 519.244 198.795 518.472 200.295C517.714 201.78 517.335 203.394 517.335 205.136V209.114C517.335 211.447 517.744 213.432 518.562 215.068C519.396 216.705 520.555 217.955 522.04 218.818C523.525 219.667 525.259 220.091 527.244 220.091C528.532 220.091 529.706 219.909 530.767 219.545C531.828 219.167 532.744 218.606 533.517 217.864C534.29 217.121 534.881 216.205 535.29 215.114L541.722 216.273C541.206 218.167 540.282 219.826 538.949 221.25C537.631 222.659 535.972 223.758 533.972 224.545C531.987 225.318 529.722 225.705 527.176 225.705ZM73.5 274.773H80.4545C80.5455 276.197 81.1894 277.295 82.3864 278.068C83.5985 278.841 85.1667 279.227 87.0909 279.227C89.0455 279.227 90.7121 278.811 92.0909 277.977C93.4697 277.129 94.1591 275.818 94.1591 274.045C94.1591 272.985 93.8939 272.061 93.3636 271.273C92.8485 270.47 92.1136 269.848 91.1591 269.409C90.2197 268.97 89.1061 268.75 87.8182 268.75H82.1364V263.409H87.8182C89.7424 263.409 91.1818 262.97 92.1364 262.091C93.0909 261.212 93.5682 260.114 93.5682 258.795C93.5682 257.371 93.053 256.227 92.0227 255.364C91.0076 254.485 89.5909 254.045 87.7727 254.045C85.9242 254.045 84.3864 254.462 83.1591 255.295C81.9318 256.114 81.2879 257.174 81.2273 258.477H74.3636C74.4091 256.523 75 254.811 76.1364 253.341C77.2879 251.856 78.8333 250.705 80.7727 249.886C82.7273 249.053 84.947 248.636 87.4318 248.636C90.0227 248.636 92.2652 249.053 94.1591 249.886C96.053 250.72 97.5152 251.871 98.5455 253.341C99.5909 254.811 100.114 256.5 100.114 258.409C100.114 260.333 99.5379 261.909 98.3864 263.136C97.25 264.348 95.7652 265.22 93.9318 265.75V266.114C95.2803 266.205 96.4773 266.614 97.5227 267.341C98.5682 268.068 99.3864 269.03 99.9773 270.227C100.568 271.424 100.864 272.78 100.864 274.295C100.864 276.432 100.273 278.28 99.0909 279.841C97.9242 281.402 96.303 282.606 94.2273 283.455C92.1667 284.288 89.8106 284.705 87.1591 284.705C84.5833 284.705 82.2727 284.303 80.2273 283.5C78.197 282.682 76.5833 281.53 75.3864 280.045C74.2045 278.561 73.5758 276.803 73.5 274.773ZM100.472 294.068V278.114H103.312C104.04 277.447 104.653 276.652 105.153 275.727C105.669 274.803 106.1 273.705 106.449 272.432C106.813 271.159 107.116 269.674 107.358 267.977C107.6 266.265 107.812 264.311 107.994 262.114L109.085 249.091H132.812V278.114H138.176V294.068H131.54V284H107.199V294.068H100.472ZM110.585 278.114H126.176V254.909H115.176L114.449 262.114C114.1 265.78 113.661 268.962 113.131 271.659C112.6 274.341 111.752 276.492 110.585 278.114ZM150.977 284.773C148.765 284.773 146.765 284.364 144.977 283.545C143.189 282.712 141.773 281.508 140.727 279.932C139.697 278.356 139.182 276.424 139.182 274.136C139.182 272.167 139.561 270.545 140.318 269.273C141.076 268 142.098 266.992 143.386 266.25C144.674 265.508 146.114 264.947 147.705 264.568C149.295 264.189 150.917 263.902 152.568 263.705C154.659 263.462 156.356 263.265 157.659 263.114C158.962 262.947 159.909 262.682 160.5 262.318C161.091 261.955 161.386 261.364 161.386 260.545V260.386C161.386 258.402 160.826 256.864 159.705 255.773C158.598 254.682 156.947 254.136 154.75 254.136C152.462 254.136 150.659 254.644 149.341 255.659C148.038 256.659 147.136 257.773 146.636 259L140.25 257.545C141.008 255.424 142.114 253.712 143.568 252.409C145.038 251.091 146.727 250.136 148.636 249.545C150.545 248.939 152.553 248.636 154.659 248.636C156.053 248.636 157.53 248.803 159.091 249.136C160.667 249.455 162.136 250.045 163.5 250.909C164.879 251.773 166.008 253.008 166.886 254.614C167.765 256.205 168.205 258.273 168.205 260.818V284H161.568V279.227H161.295C160.856 280.106 160.197 280.97 159.318 281.818C158.439 282.667 157.311 283.371 155.932 283.932C154.553 284.492 152.902 284.773 150.977 284.773ZM152.455 279.318C154.333 279.318 155.939 278.947 157.273 278.205C158.621 277.462 159.644 276.492 160.341 275.295C161.053 274.083 161.409 272.788 161.409 271.409V266.909C161.167 267.152 160.697 267.379 160 267.591C159.318 267.788 158.538 267.962 157.659 268.114C156.78 268.25 155.924 268.379 155.091 268.5C154.258 268.606 153.561 268.697 153 268.773C151.682 268.939 150.477 269.22 149.386 269.614C148.311 270.008 147.447 270.576 146.795 271.318C146.159 272.045 145.841 273.015 145.841 274.227C145.841 275.909 146.462 277.182 147.705 278.045C148.947 278.894 150.53 279.318 152.455 279.318ZM196.915 263.614V269.5H178.006V263.614H196.915ZM179.915 249.091V284H173.256V249.091H179.915ZM201.665 249.091V284H195.028V249.091H201.665ZM213.415 274.477L228.801 249.091H236.119V284H229.46V258.591L214.142 284H206.756V249.091H213.415V274.477ZM247.915 274.477L263.301 249.091H270.619V284H263.96V258.591L248.642 284H241.256V249.091H247.915V274.477ZM260.392 237.273H265.983C265.983 239.833 265.074 241.917 263.256 243.523C261.453 245.114 259.013 245.909 255.938 245.909C252.877 245.909 250.445 245.114 248.642 243.523C246.839 241.917 245.938 239.833 245.938 237.273H251.506C251.506 238.409 251.839 239.417 252.506 240.295C253.172 241.159 254.316 241.591 255.938 241.591C257.528 241.591 258.665 241.159 259.347 240.295C260.044 239.432 260.392 238.424 260.392 237.273Z" fill="white"/>
</g>
<defs>
<linearGradient id="paint0_linear_182_9154" x1="1591" y1="204.5" x2="0" y2="204.5" gradientUnits="userSpaceOnUse">
<stop offset="0.325058" stop-color="#D31907"/>
<stop offset="0.911314" stop-color="#720903"/>
</linearGradient>
<clipPath id="clip0_182_9154">
<rect width="1591" height="409" rx="60" fill="white"/>
</clipPath>
</defs>
</svg>
