<svg width="171" height="32" viewBox="0 0 171 32" fill="none" xmlns="http://www.w3.org/2000/svg">
<mask id="mask0_1_482" style="mask-type:luminance" maskUnits="userSpaceOnUse" x="0" y="0" width="171" height="32">
<path d="M171 0H0V32H171V0Z" fill="white"/>
</mask>
<g mask="url(#mask0_1_482)">
<path d="M80.923 12.7148V25.9106H79.037V14.4075H73.169V21.7085C73.169 24.2348 72.214 25.9864 69.59 25.9864C69.387 25.9885 69.184 25.9659 68.987 25.9191L68.71 24.2348H69.154C71.116 24.2348 71.283 23.2159 71.283 21.2285V12.7148H80.923Z" fill="white"/>
<path d="M53.0096 12.707V25.9028H51.1066V14.3997H44.3176V25.9028H42.4316V12.707H53.0096Z" fill="white"/>
<path d="M86.003 12.707V22.5007L93.455 12.707H95.031V25.9028H93.145V16.0755L85.693 25.9028H84.117V12.707H86.003Z" fill="white"/>
<path d="M110.479 25.9028H108.585V15.6376H108.551L104.494 20.7491H104.201L100.144 15.6376H100.11V25.9028H98.216V12.707H100.001L104.343 18.1302L108.711 12.707H110.479V25.9028Z" fill="white"/>
<path d="M121.595 12.707V14.3997H115.559V18.2565H121.469V19.9491H115.559V24.2102H121.829V25.9028H113.665V12.707H121.595Z" fill="white"/>
<path d="M133.833 12.707V14.3997H129.39V25.9028H127.504V14.3997H123.062V12.707H133.833Z" fill="white"/>
<path d="M136.842 20.3212H140.916L138.804 15.5297L136.834 20.3212H136.842ZM145.375 25.9044H143.447L141.687 22.0223H136.104L134.428 25.9044H132.5L138.158 12.6328H139.474L145.375 25.9044Z" fill="white"/>
<path d="M157.731 12.7148V25.9106H155.845V14.4075H150.187V21.7085C150.187 24.2348 149.231 25.9864 146.608 25.9864C146.405 25.9885 146.202 25.9659 146.004 25.9191L145.728 24.2348H146.172C148.133 24.2348 148.301 23.2159 148.301 21.2285V12.7148H157.731Z" fill="white"/>
<path d="M170.581 12.7148V25.9106H168.695V14.4075H163.037V21.7085C163.037 24.2348 162.081 25.9865 159.457 25.9865C159.254 25.9881 159.052 25.9655 158.854 25.9191L158.577 24.2348H159.005C160.966 24.2348 161.134 23.2159 161.134 21.2285V12.7148H170.564" fill="white"/>
<path d="M61.694 24.3205C63.742 24.3857 65.624 23.1968 66.453 21.3149C67.282 19.4329 66.892 17.234 65.466 15.7556C64.041 14.2772 61.866 13.8148 59.967 14.5865C58.068 15.3582 56.825 17.2099 56.824 19.2679C56.766 20.597 57.256 21.8914 58.177 22.8471C59.098 23.8028 60.37 24.3356 61.694 24.3205ZM61.694 12.531C65.398 12.531 68.4 15.5472 68.4 19.2679C68.4 22.9885 65.398 26.005 61.694 26.005C57.991 26.005 54.988 22.9885 54.988 19.2679C54.935 17.4636 55.623 15.7169 56.892 14.4389C58.161 13.1609 59.898 12.4647 61.694 12.5142V12.531Z" fill="white"/>
<path d="M20.7799 23.63L2.0201 28.161L0 31.681H30.3441L23.3532 24.2868C22.7067 23.5651 21.6909 23.3058 20.7799 23.63Z" fill="white"/>
<path d="M14.7608 22.1221L20.2345 3.5368L18.1808 0L3.00879 26.4L12.8748 24.0084C13.8273 23.8244 14.5734 23.0782 14.7608 22.1221Z" fill="white"/>
<path d="M19.0783 17.6266L32.3644 31.6811H36.4131L21.241 5.28125L18.3658 15.0582C18.0808 15.9677 18.3608 16.9603 19.0783 17.5844" fill="white"/>
</g>
</svg>
