<svg width="138" height="56" viewBox="0 0 138 56" fill="none" xmlns="http://www.w3.org/2000/svg">
<mask id="mask0_1_530" style="mask-type:luminance" maskUnits="userSpaceOnUse" x="0" y="0" width="138" height="56">
<path d="M138 0H0V56H138V0Z" fill="white"/>
</mask>
<g mask="url(#mask0_1_530)">
<path d="M0 40.8587C0 40.037 0.150802 39.1406 0.527801 38.3936C0.829501 37.6467 1.3573 37.0491 1.9605 36.5262C2.6392 36.0033 3.3178 35.5551 4.1473 35.331C5.0522 35.0322 5.957 34.8828 6.8619 34.8828C7.8422 34.8828 8.747 35.0322 9.6519 35.331C11.2354 35.7792 12.5927 36.8997 13.2714 38.3936C13.6484 39.1406 13.7992 40.037 13.7992 40.8587V49.3H10.5568V41.6804C10.6322 40.6346 10.3305 39.5888 9.6519 38.7671C8.8978 38.0948 7.9176 37.7214 6.9373 37.7214C5.8816 37.6467 4.9014 38.0201 4.2227 38.7671C3.5441 39.5888 3.2424 40.6346 3.3178 41.6804V49.374H0V40.8587Z" fill="white"/>
<path d="M22.9981 46.909C23.6021 46.909 24.2051 46.76 24.7331 46.536C25.2611 46.312 25.713 46.013 26.09 45.565C26.467 45.116 26.7691 44.5936 26.9951 44.0707C27.2211 43.4731 27.2971 42.8755 27.2971 42.278C27.2971 41.6804 27.2211 41.0081 26.9951 40.4105C26.7691 39.8876 26.467 39.3647 26.09 38.9165C25.713 38.4683 25.2611 38.1695 24.7331 37.9454C24.2051 37.7213 23.6021 37.572 22.9981 37.572C22.3951 37.572 21.7921 37.7213 21.1891 37.9454C20.6611 38.1695 20.2081 38.4683 19.8315 38.9165C19.4545 39.3647 19.1528 39.8876 18.9266 40.4105C18.7004 41.0081 18.625 41.6057 18.625 42.278C18.625 42.8755 18.7004 43.4731 18.9266 44.0707C19.1528 44.5936 19.4545 45.116 19.8315 45.565C20.2081 46.013 20.6611 46.312 21.1891 46.536C21.7921 46.835 22.3951 46.909 22.9981 46.909ZM22.9981 34.8828C24.0541 34.8828 25.11 35.0322 26.09 35.4057C26.995 35.7792 27.8241 36.3021 28.5781 36.9744C29.2571 37.6467 29.8601 38.3936 30.2371 39.29C31.0671 41.1575 31.0671 43.3237 30.2371 45.191C29.8601 46.088 29.3321 46.835 28.5781 47.507C27.9001 48.179 26.995 48.702 26.09 49.075C25.11 49.449 24.0541 49.598 22.9981 49.598C21.9431 49.598 20.8871 49.449 19.9069 49.075C19.002 48.702 18.1726 48.179 17.4185 47.582C16.7399 46.909 16.1366 46.162 15.7596 45.266C15.3826 44.3695 15.1562 43.3237 15.1562 42.3526C15.1562 41.3069 15.3072 40.3358 15.7596 39.4394C16.1366 38.543 16.6645 37.796 17.4185 37.1238C18.0972 36.4515 19.002 35.9286 19.9069 35.5551C20.8871 35.1069 21.9431 34.8828 22.9981 34.8828Z" fill="white"/>
<path d="M32.2742 40.3389C32.1982 38.845 32.7262 37.351 33.8572 36.3052C35.1392 35.3341 36.6472 34.8112 38.2312 34.8859C39.2112 34.8859 40.1912 35.0353 41.0962 35.4088C41.7752 35.6329 42.2272 36.2305 42.2272 36.9028C42.2272 37.2016 42.1522 37.5751 41.9262 37.7992C41.8502 38.0233 41.6992 38.1727 41.4732 38.3221C41.0962 38.1727 40.6442 38.0233 40.2672 37.8739C39.7392 37.7245 39.2112 37.6498 38.6832 37.7245C36.4962 37.7245 35.3652 38.845 35.3652 41.2353V49.377H32.1982L32.2742 40.3389Z" fill="white"/>
<path d="M54.1406 42.3529C54.1406 41.7553 54.0646 41.1577 53.8386 40.5602C53.6126 40.0373 53.3106 39.5144 52.9336 39.0662C52.5566 38.618 52.1046 38.3192 51.5006 38.0951C50.9736 37.871 50.3696 37.7216 49.7666 37.7216C49.1636 37.7216 48.5606 37.871 48.0326 38.0951C47.5046 38.3192 47.0526 38.6927 46.5996 39.0662C46.2226 39.4397 45.9206 39.9626 45.6946 40.4855C45.4686 41.083 45.3936 41.6806 45.3936 42.3529C45.3936 42.9505 45.4686 43.5481 45.6946 44.1457C45.9206 44.6686 46.2226 45.191 46.5996 45.565C46.9766 46.013 47.4296 46.312 48.0326 46.536C48.5606 46.76 49.1636 46.91 49.7666 46.91C50.3696 46.91 50.9736 46.835 51.5006 46.611C52.0286 46.387 52.4816 46.088 52.9336 45.714C53.3106 45.341 53.6126 44.818 53.8386 44.2951C54.0646 43.6228 54.1406 43.0252 54.1406 42.3529ZM54.1406 30.2518C54.0646 29.8036 54.2906 29.4301 54.5926 29.1313C54.9696 28.8325 55.4226 28.7578 55.8746 28.7578C56.1766 28.7578 56.4776 28.8325 56.7796 28.9072C57.0806 28.9819 57.2316 29.0566 57.3076 29.0566V41.6806C57.3076 42.8758 57.1566 44.071 56.7036 45.191C56.3266 46.163 55.7996 46.984 55.1206 47.731C54.4416 48.403 53.6126 48.926 52.7076 49.225C51.7276 49.524 50.7466 49.748 49.6916 49.748C48.6356 49.748 47.5796 49.599 46.5996 49.225C45.6946 48.852 44.8656 48.403 44.1866 47.731C43.5076 47.059 42.9806 46.237 42.6036 45.416C41.8496 43.4734 41.8496 41.3818 42.6036 39.4397C42.9046 38.5433 43.4326 37.7963 44.1116 37.124C44.7146 36.4517 45.5436 35.9289 46.3736 35.6301C47.2786 35.2566 48.2586 35.0325 49.2386 35.1072C50.2196 35.1072 51.1996 35.3313 52.1046 35.7795C52.8586 36.153 53.5366 36.6011 54.0646 37.2734L54.1406 30.2518Z" fill="white"/>
<path d="M66.433 46.687C67.036 46.687 67.639 46.612 68.167 46.388C68.695 46.164 69.147 45.865 69.524 45.492C69.901 45.118 70.203 44.5952 70.429 44.0723C70.882 42.9519 70.882 41.6073 70.429 40.4868C70.203 39.9639 69.901 39.5157 69.524 39.0676C69.147 38.6194 68.695 38.3206 68.167 38.1712C67.639 37.9471 67.036 37.7977 66.433 37.8724C65.829 37.8724 65.226 38.0218 64.623 38.2459C64.095 38.47 63.643 38.7688 63.19 39.2169C62.813 39.6651 62.511 40.1133 62.285 40.6362C62.059 41.2338 61.984 41.7567 61.984 42.3543C61.908 43.5495 62.361 44.6699 63.19 45.566C64.095 46.313 65.226 46.761 66.433 46.687ZM61.003 51.766C61.079 51.841 61.23 51.841 61.531 51.99C61.833 52.14 62.059 52.14 62.511 52.289C62.964 52.439 63.341 52.439 63.869 52.588C64.397 52.663 65 52.663 65.528 52.663C66.131 52.663 66.81 52.588 67.413 52.439C68.016 52.289 68.544 52.065 69.072 51.692C69.6 51.318 69.977 50.795 70.278 50.198C70.655 49.376 70.806 48.554 70.731 47.658V47.359C70.203 47.957 69.6 48.405 68.846 48.778C67.941 49.227 66.885 49.525 65.905 49.451C64.924 49.451 63.944 49.301 62.964 48.928C62.134 48.629 61.305 48.106 60.702 47.434C60.023 46.836 59.495 46.014 59.194 45.193C58.817 44.2964 58.59 43.2507 58.666 42.2796C58.666 41.3085 58.817 40.2627 59.194 39.3663C59.571 38.47 60.099 37.723 60.777 37.0507C61.456 36.3784 62.361 35.8555 63.266 35.5567C64.246 35.1832 65.301 34.9591 66.357 35.0338C67.337 35.0338 68.393 35.1832 69.298 35.482C70.203 35.7808 71.032 36.3037 71.636 36.976C72.39 37.6483 72.917 38.5447 73.219 39.441C73.596 40.5615 73.822 41.7567 73.747 42.9519V46.986C73.747 48.255 73.596 49.525 73.144 50.72C72.767 51.692 72.239 52.588 71.485 53.26C70.731 53.933 69.901 54.455 68.921 54.754C67.865 55.053 66.81 55.202 65.679 55.202C65 55.202 64.246 55.128 63.567 55.053C63.039 54.978 62.436 54.904 61.908 54.754C61.531 54.68 61.079 54.53 60.702 54.381C60.4 54.231 60.174 54.157 60.023 54.082L61.003 51.766Z" fill="white"/>
<path d="M83.021 46.909C83.625 46.909 84.228 46.76 84.756 46.536C85.284 46.312 85.736 46.013 86.188 45.565C86.565 45.116 86.867 44.5936 87.093 44.0707C87.32 43.4731 87.395 42.8755 87.395 42.278C87.395 41.6804 87.32 41.0081 87.093 40.4105C86.867 39.8876 86.565 39.3647 86.188 38.9165C85.811 38.4683 85.359 38.1695 84.756 37.9454C84.228 37.7213 83.625 37.572 83.021 37.572C82.418 37.572 81.815 37.7213 81.212 37.9454C80.684 38.1695 80.231 38.4683 79.779 38.9165C79.402 39.3647 79.0999 39.8876 78.8739 40.4105C78.6479 41.0081 78.573 41.6057 78.573 42.278C78.573 42.8755 78.6479 43.4731 78.8739 44.0707C79.0999 44.5936 79.402 45.116 79.779 45.565C80.156 46.013 80.608 46.312 81.212 46.536C81.815 46.835 82.418 46.909 83.021 46.909ZM83.021 34.8828C84.077 34.8828 85.133 35.0322 86.113 35.4057C87.018 35.7792 87.847 36.3021 88.601 36.9744C89.28 37.6467 89.883 38.3936 90.185 39.29C90.562 40.1864 90.7879 41.2322 90.7879 42.2033C90.7879 43.249 90.562 44.2201 90.185 45.116C89.808 46.013 89.28 46.76 88.601 47.432C87.923 48.104 87.018 48.627 86.113 49.001C84.153 49.748 81.966 49.748 80.005 49.001C79.1 48.627 78.271 48.104 77.517 47.432C76.838 46.76 76.235 46.013 75.933 45.116C75.556 44.2201 75.33 43.1743 75.33 42.2033C75.33 41.1575 75.481 40.1864 75.933 39.29C76.31 38.3936 76.838 37.6467 77.517 36.9744C78.195 36.3021 79.1 35.7792 80.005 35.4057C80.985 35.0322 82.041 34.8828 83.021 34.8828Z" fill="white"/>
<path d="M92.447 30.2518C92.372 29.8036 92.598 29.4301 92.9 29.1313C93.277 28.9072 93.729 28.7578 94.182 28.7578C94.483 28.7578 94.785 28.8325 95.086 28.9072C95.388 28.9819 95.539 29.0566 95.614 29.0566V49.375H92.447V30.2518Z" fill="white"/>
<path d="M109.338 42.3529C109.338 41.7553 109.262 41.1577 109.036 40.5602C108.81 40.0373 108.508 39.5144 108.131 39.0662C107.754 38.618 107.302 38.3192 106.699 38.0951C106.171 37.871 105.567 37.7216 104.964 37.7216C104.361 37.7216 103.758 37.871 103.23 38.0951C102.702 38.3192 102.25 38.6927 101.797 39.0662C101.42 39.4397 101.119 39.9626 100.892 40.4855C100.666 41.083 100.591 41.6806 100.591 42.3529C100.591 42.9505 100.666 43.5481 100.892 44.1457C101.119 44.6686 101.42 45.191 101.797 45.565C102.174 46.013 102.627 46.312 103.23 46.536C103.758 46.76 104.361 46.91 104.964 46.91C105.567 46.91 106.171 46.835 106.699 46.611C107.226 46.387 107.679 46.088 108.131 45.714C108.508 45.266 108.81 44.818 109.036 44.2951C109.262 43.6228 109.338 42.9505 109.338 42.3529ZM109.338 30.2518C109.262 29.8036 109.489 29.4301 109.79 29.1313C110.167 28.8325 110.62 28.7578 111.072 28.7578C111.374 28.7578 111.675 28.8325 111.977 28.9072C112.279 28.9819 112.429 29.0566 112.505 29.0566V41.6806C112.505 42.8758 112.354 44.071 111.977 45.191C111.6 46.163 111.072 46.984 110.393 47.731C109.715 48.403 108.885 48.926 107.98 49.225C107 49.524 106.02 49.748 104.964 49.748C103.909 49.748 102.853 49.599 101.873 49.225C100.968 48.852 100.138 48.403 99.46 47.731C98.781 47.059 98.253 46.237 97.876 45.416C97.122 43.4734 97.122 41.3818 97.876 39.4397C98.178 38.5433 98.706 37.7963 99.384 37.124C99.987 36.4517 100.817 35.9289 101.646 35.6301C102.551 35.2566 103.532 35.0325 104.512 35.1072C105.492 35.1072 106.472 35.3313 107.377 35.7795C108.131 36.153 108.81 36.6011 109.338 37.2734V30.2518Z" fill="white"/>
<path d="M117.708 9.412L122.911 0L128.114 9.412C126.455 8.8144 124.721 8.5156 122.911 8.4409C121.101 8.4409 119.367 8.8144 117.708 9.412Z" fill="white"/>
<path d="M117.708 9.412L122.911 0L128.114 9.412C126.455 8.8144 124.721 8.5156 122.911 8.4409C121.101 8.4409 119.367 8.8144 117.708 9.412Z" fill="white"/>
<path d="M117.708 19.7185L108.207 14.5643L117.708 9.41016C117.105 11.0535 116.803 12.7716 116.652 14.5643C116.652 16.2824 117.029 18.0752 117.708 19.7185Z" fill="white"/>
<path d="M128.039 19.7188L122.836 29.1306L117.708 19.7188C119.367 20.3163 121.101 20.6151 122.911 20.7645C124.645 20.6898 126.38 20.3163 128.039 19.7188Z" fill="white"/>
<path d="M128.038 9.41406L137.539 14.5682L128.038 19.6477C128.641 18.0044 128.943 16.2863 129.094 14.4935C129.018 12.7755 128.641 11.0574 128.038 9.41406Z" fill="white"/>
</g>
</svg>
