<svg width="164" height="32" viewBox="0 0 164 32" fill="none" xmlns="http://www.w3.org/2000/svg">
<path d="M18.8506 13.5059C18.3412 13.0607 17.7069 12.7718 17.028 12.6758C16.349 12.5799 15.656 12.6811 15.0364 12.9668C14.4169 13.2525 13.8988 13.7097 13.5475 14.2807C13.1963 14.8517 13.0278 15.5108 13.0632 16.1746C13.0987 16.8384 13.3366 17.477 13.7468 18.0099C14.157 18.5427 14.7211 18.9456 15.3678 19.1678C16.0145 19.39 16.7146 19.4213 17.3797 19.258C18.0447 19.0946 18.6449 18.7438 19.1041 18.25C19.7196 17.5882 20.0386 16.7167 19.9911 15.8271C19.9435 14.9375 19.5333 14.1026 18.8506 13.5059Z" fill="white"/>
<path d="M6.58158 3.21351C4.29418 4.88421 2.49209 7.10011 1.35059 9.64541C3.04419 10.0584 4.60469 10.8744 5.89059 12.0193C7.17639 13.1642 8.14689 14.602 8.71419 16.2021C9.28159 16.0228 10.5048 15.3329 11.3539 12.6665C12.4886 9.0997 14.6494 5.66931 17.446 4.51941C14.6615 1.84521 10.9837 1.21371 6.58158 3.21351Z" fill="white"/>
<path d="M29.249 5.79578C26.5427 2.62208 22.6767 0.582281 18.4564 0.101581C14.2361 -0.379119 9.98713 0.736182 6.59473 3.21518C12.707 0.439783 17.4189 2.72798 20.304 8.52448C21.9115 8.83658 23.5744 8.75018 25.1382 8.27308C26.7021 7.79608 28.1161 6.94388 29.249 5.79578Z" fill="white"/>
<path d="M10.0376 30.726C12.6735 31.809 15.5545 32.212 18.3992 31.895C17.9203 30.268 17.8686 28.551 18.2488 26.899C18.629 25.2477 19.4289 23.7143 20.5761 22.4383C20.1334 22.0485 18.9022 21.3702 16.0975 21.99C12.3393 22.8204 8.19469 22.7268 5.76429 20.957C4.77039 24.633 6.04599 28.032 10.0376 30.726Z" fill="white"/>
<path d="M1.03921 10.4258C-0.43789 14.2839 -0.324786 18.5449 1.35501 22.3244C3.03491 26.104 6.15241 29.112 10.0607 30.724C4.51981 26.985 4.21401 21.8864 7.94811 16.5693C7.42481 15.0639 6.51691 13.7112 5.30891 12.6371C4.10091 11.563 2.63211 10.8023 1.03921 10.4258Z" fill="white"/>
<path d="M32.8937 14.0545C32.5466 11.301 31.4679 8.68193 29.7632 6.45312C28.5492 7.67093 27.0397 8.57472 25.3724 9.08202C23.7052 9.58932 21.9333 9.68402 20.2186 9.35732C20.0939 9.92252 20.0979 11.3063 22.0575 13.3373C24.677 16.066 26.6648 19.6016 26.2986 22.5252C30.0811 21.5195 32.4833 18.7518 32.8937 14.0545Z" fill="white"/>
<path d="M19.2778 31.776C23.4689 31.092 27.2259 28.867 29.7656 25.5659C32.3054 22.2645 33.432 18.141 32.9106 14.0547C32.3392 20.5724 27.9371 23.3908 21.33 22.9035C20.2444 24.0953 19.4871 25.5334 19.1283 27.084C18.7696 28.635 18.821 30.249 19.2778 31.776Z" fill="white"/>
<path d="M43.7046 24.4344H39.9746V7.56708H45.9696C46.9676 7.55658 47.9626 7.66928 48.9316 7.90228C49.7426 8.09828 50.5076 8.44657 51.1806 8.92747C51.8046 9.38637 52.2976 9.99138 52.6136 10.6856C52.9666 11.4804 53.1416 12.3386 53.1286 13.2038C53.1456 14.074 52.9706 14.9377 52.6176 15.7376C52.2786 16.4676 51.7636 17.108 51.1166 17.6048C50.4136 18.1407 49.6106 18.538 48.7506 18.7743C47.7296 19.0487 46.6746 19.18 45.6156 19.1641H43.7006L43.7046 24.4344ZM43.6316 15.9832H45.6716C46.5946 16.0313 47.5106 15.807 48.2996 15.34C48.6176 15.1133 48.8716 14.812 49.0376 14.4642C49.2026 14.1165 49.2746 13.7338 49.2456 13.3519C49.2456 12.4008 48.9376 11.729 48.3236 11.3366C47.5226 10.8978 46.6066 10.6934 45.6876 10.748H43.6316V15.9832Z" fill="white"/>
<path d="M64.3887 24.7269C63.2177 24.7436 62.0537 24.5548 60.9517 24.1695C59.9427 23.8113 59.0287 23.24 58.2767 22.4972C57.5057 21.7175 56.9157 20.7872 56.5457 19.7685C56.1177 18.5573 55.9127 17.2828 55.9387 16.0028C55.9147 14.7259 56.1307 13.4554 56.5747 12.2528C56.9547 11.2341 57.5527 10.3044 58.3287 9.52407C59.0737 8.78437 59.9777 8.21217 60.9767 7.84787C62.0377 7.46327 63.1627 7.27167 64.2957 7.28267C65.5237 7.26207 66.7437 7.46577 67.8937 7.88297C68.9027 8.25627 69.8117 8.84517 70.5527 9.60597C71.3027 10.3958 71.8667 11.3333 72.2067 12.3542C72.6057 13.5326 72.7997 14.7668 72.7827 16.0067C72.8117 17.3324 72.5957 18.6525 72.1467 19.9049C71.7727 20.9296 71.1697 21.8615 70.3797 22.6336C69.6237 23.3475 68.7147 23.8906 67.7167 24.2241C66.6437 24.5717 65.5187 24.7417 64.3887 24.7269ZM64.5137 21.546C65.1117 21.5524 65.7057 21.4369 66.2557 21.2069C66.7907 20.9783 67.2607 20.6263 67.6237 20.1817C68.0347 19.6709 68.3347 19.0848 68.5047 18.4587C68.7287 17.6586 68.8347 16.8317 68.8187 16.0028C68.8187 14.0901 68.4027 12.6881 67.5717 11.7967C67.1587 11.3545 66.6507 11.0054 66.0827 10.7744C65.5157 10.5433 64.9027 10.4359 64.2877 10.4597C63.6947 10.4567 63.1077 10.5708 62.5617 10.7949C62.0157 11.0244 61.5327 11.3757 61.1537 11.8201C60.7257 12.3315 60.4097 12.9217 60.2237 13.5548C59.9847 14.3497 59.8707 15.175 59.8857 16.0028C59.8687 16.8351 59.9907 17.6645 60.2477 18.4587C60.4517 19.0913 60.7857 19.6775 61.2297 20.1817C61.6297 20.6299 62.1327 20.981 62.6987 21.2069C63.2767 21.4365 63.8967 21.5518 64.5217 21.546H64.5137Z" fill="white"/>
<path d="M89.4696 23.7795C89.2356 23.8926 88.9866 24.0017 88.7126 24.1148C88.3956 24.2402 88.0706 24.3444 87.7386 24.4266C87.3146 24.5311 86.8826 24.6067 86.4476 24.6527C85.8906 24.7121 85.3296 24.7407 84.7696 24.7385C83.5386 24.7528 82.3136 24.5643 81.1476 24.181C80.1086 23.8425 79.1586 23.2876 78.3636 22.5555C77.5676 21.8051 76.9556 20.8913 76.5726 19.8814C76.1276 18.7089 75.9116 17.4662 75.9376 16.2171C75.9126 14.9095 76.1276 13.6081 76.5726 12.3735C76.9476 11.3184 77.5686 10.3616 78.3876 9.57782C79.2076 8.79402 80.2026 8.20462 81.2966 7.85562C82.5366 7.45462 83.8366 7.25952 85.1436 7.27862C85.9986 7.26952 86.8526 7.34922 87.6906 7.51642C88.3196 7.63962 88.9336 7.82652 89.5216 8.07382L88.6966 11.1105C88.1746 10.9311 87.6356 10.8005 87.0876 10.7207C86.6176 10.6459 86.1426 10.6055 85.6666 10.5999C84.8716 10.5914 84.0806 10.6965 83.3166 10.9117C82.6446 11.1046 82.0256 11.4387 81.5026 11.8901C80.9776 12.3577 80.5726 12.9368 80.3186 13.5819C80.0206 14.3583 79.8776 15.1824 79.8966 16.0105C79.8966 17.7959 80.4146 19.1407 81.4496 20.0451C82.4856 20.9495 83.8826 21.4004 85.6426 21.3978C86.1286 21.3877 86.6116 21.3342 87.0876 21.2379C87.6516 21.1343 88.2026 20.9695 88.7286 20.7468L89.4696 23.7795Z" fill="white"/>
<path d="M103.658 20.75H96.962L95.719 24.4337H92.037L97.984 7.56641H102.813L108.684 24.4337H104.877L103.658 20.75ZM97.988 17.5652H102.64L100.326 10.4822L97.988 17.5652Z" fill="white"/>
<path d="M117.218 24.4337H113.484V10.8915H108.534V7.56641H122.143V10.8915H117.218V24.4337Z" fill="white"/>
<path d="M132.339 24.727C131.165 24.7443 129.998 24.5554 128.894 24.1695C127.887 23.8108 126.974 23.2396 126.223 22.4972C125.45 21.7186 124.86 20.7879 124.492 19.7685C124.065 18.5638 123.858 17.2961 123.881 16.0224C123.857 14.7454 124.073 13.4749 124.516 12.2724C124.897 11.2537 125.495 10.324 126.271 9.5436C127.016 8.804 127.92 8.2318 128.918 7.8674C129.981 7.4833 131.108 7.2917 132.242 7.3022C133.468 7.2816 134.687 7.4853 135.835 7.9025C136.846 8.2758 137.756 8.8647 138.499 9.6255C139.246 10.4173 139.81 11.3542 140.153 12.3737C140.55 13.5524 140.743 14.7866 140.724 16.0263C140.754 17.352 140.538 18.672 140.089 19.9244C139.717 20.9499 139.113 21.8821 138.322 22.6532C137.568 23.3669 136.659 23.9101 135.662 24.2436C134.59 24.5837 133.467 24.7471 132.339 24.727ZM132.464 21.5461C133.062 21.5524 133.656 21.4369 134.206 21.2069C134.741 20.9783 135.211 20.6264 135.574 20.1817C135.985 19.6703 136.286 19.0845 136.459 18.4587C136.68 17.658 136.784 16.8315 136.769 16.0029C136.769 14.0902 136.355 12.6882 135.526 11.7968C135.113 11.3545 134.605 11.0055 134.037 10.7744C133.47 10.5434 132.857 10.436 132.242 10.4597C131.648 10.4563 131.059 10.5704 130.512 10.795C129.967 11.0246 129.486 11.3759 129.108 11.8202C128.679 12.3313 128.361 12.9214 128.174 13.5548C127.935 14.3498 127.821 15.1751 127.836 16.0029C127.818 16.8351 127.941 17.6646 128.198 18.4587C128.402 19.0904 128.735 19.6762 129.176 20.1817C129.576 20.6299 130.079 20.981 130.645 21.2069C131.222 21.4356 131.84 21.5509 132.464 21.5461Z" fill="white"/>
<path d="M163.988 24.4337H160.23L159.284 13.2304L155.711 24.4337H152.154L148.621 13.2772L147.663 24.4337H143.909L145.652 7.56641H150.106L154.037 20.29L157.916 7.56641H162.222L163.988 24.4337Z" fill="white"/>
</svg>
