<svg width="13" height="11" viewBox="0 0 13 11" fill="none" xmlns="http://www.w3.org/2000/svg">
<path d="M12.529 6.05164L7.77265 10.7859C7.67349 10.8846 7.53899 10.94 7.39875 10.94C7.25851 10.94 7.12401 10.8846 7.02485 10.7859C6.92569 10.6872 6.86997 10.5533 6.86997 10.4137C6.86997 10.2741 6.92569 10.1402 7.02485 10.0415L10.8795 6.20551H0.528482C0.388321 6.20551 0.253899 6.15008 0.15479 6.05143C0.0556792 5.95278 0 5.81898 0 5.67948C0 5.53997 0.0556792 5.40617 0.15479 5.30752C0.253899 5.20887 0.388321 5.15346 0.528482 5.15346H10.8795L7.02485 1.31743C6.92569 1.21871 6.86997 1.08485 6.86997 0.945262C6.86997 0.805674 6.92569 0.671803 7.02485 0.5731C7.12401 0.474396 7.25851 0.418945 7.39875 0.418945C7.53899 0.418945 7.67349 0.474396 7.77265 0.5731L12.529 5.30732C12.5781 5.35617 12.6171 5.41418 12.6437 5.47804C12.6703 5.5419 12.684 5.61036 12.684 5.67948C12.684 5.74861 12.6703 5.81705 12.6437 5.88091C12.6171 5.94477 12.5781 6.00279 12.529 6.05164Z" fill="#222222"/>
</svg>
