<svg width="40" height="40" viewBox="0 0 40 40" fill="none" xmlns="http://www.w3.org/2000/svg">
<rect width="40" height="40" rx="8" fill="white" fill-opacity="0.08"/>
<path d="M31.6164 19.0675L22.9491 10.4001C22.7017 10.1527 22.372 10.0169 22.0204 10.0169C21.6684 10.0169 21.3388 10.1529 21.0914 10.4001L20.3045 11.1872C20.0573 11.4342 19.9211 11.7642 19.9211 12.116C19.9211 12.4676 20.0573 12.8087 20.3045 13.0557L25.3608 18.1232H9.29657C8.57229 18.1232 8 18.6902 8 19.4147V20.5274C8 21.2519 8.57229 21.8761 9.29657 21.8761H25.4182L20.3047 26.9719C20.0575 27.2193 19.9213 27.5402 19.9213 27.892C19.9213 28.2435 20.0575 28.5691 20.3047 28.8163L21.0916 29.6009C21.339 29.8483 21.6686 29.9832 22.0206 29.9832C22.3722 29.9832 22.7019 29.8466 22.9493 29.5992L31.6166 20.9319C31.8646 20.6837 32.001 20.3524 32 20.0002C32.0008 19.6468 31.8646 19.3153 31.6164 19.0675Z" fill="white"/>
</svg>
