<svg width="740" height="204" viewBox="0 0 740 204" fill="none" xmlns="http://www.w3.org/2000/svg">
<g clip-path="url(#clip0_41_1669)">
<rect width="740" height="204" rx="28" fill="#3A3B3A"/>
<path d="M1.34659 100V-45.4545H57.0284C67.5398 -45.4545 76.2756 -43.7974 83.2358 -40.483C90.2434 -37.2159 95.4754 -32.7415 98.9318 -27.0597C102.436 -21.3778 104.188 -14.9384 104.188 -7.74148C104.188 -1.82292 103.051 3.24337 100.778 7.45738C98.5057 11.624 95.4517 15.0095 91.6165 17.6136C87.7812 20.2178 83.4962 22.0881 78.7614 23.2244V24.6449C83.9224 24.929 88.8703 26.5151 93.6051 29.4034C98.3873 32.2443 102.294 36.2689 105.324 41.4773C108.354 46.6856 109.869 52.983 109.869 60.3693C109.869 67.8977 108.046 74.6686 104.401 80.6818C100.755 86.6477 95.2623 91.3589 87.9233 94.8153C80.5843 98.2718 71.3513 100 60.2244 100H1.34659ZM27.696 77.983H56.0341C65.5985 77.983 72.4877 76.16 76.7017 72.5142C80.9631 68.821 83.0938 64.0862 83.0938 58.3097C83.0938 54.0009 82.0284 50.1184 79.8977 46.6619C77.767 43.1581 74.7367 40.4119 70.8068 38.4233C66.8769 36.3873 62.1894 35.3693 56.7443 35.3693H27.696V77.983ZM27.696 16.4062H53.7614C58.3068 16.4062 62.4025 15.5777 66.0483 13.9205C69.6941 12.2159 72.5587 9.82481 74.642 6.74716C76.7727 3.62216 77.8381 -0.0710249 77.8381 -4.33239C77.8381 -9.96686 75.8494 -14.607 71.8722 -18.2528C67.9422 -21.8987 62.0947 -23.7216 54.3295 -23.7216H27.696V16.4062ZM224.482 -45.4545H250.832V49.5739C250.832 59.9905 248.37 69.1525 243.445 77.0597C238.568 84.9669 231.703 91.1458 222.849 95.5966C213.995 100 203.649 102.202 191.812 102.202C179.927 102.202 169.558 100 160.704 95.5966C151.85 91.1458 144.984 84.9669 140.107 77.0597C135.23 69.1525 132.792 59.9905 132.792 49.5739V-45.4545H159.141V47.3722C159.141 53.4328 160.467 58.8305 163.119 63.5653C165.817 68.3002 169.605 72.017 174.482 74.7159C179.359 77.3674 185.136 78.6932 191.812 78.6932C198.488 78.6932 204.264 77.3674 209.141 74.7159C214.066 72.017 217.853 68.3002 220.505 63.5653C223.156 58.8305 224.482 53.4328 224.482 47.3722V-45.4545ZM305.821 -45.4545V100H279.472V-45.4545H305.821ZM334.354 100V-45.4545H360.704V77.9119H424.766V100H334.354ZM496.925 100H447.636V-45.4545H497.92C512.361 -45.4545 524.766 -42.5426 535.136 -36.7188C545.552 -30.9422 553.554 -22.6326 559.141 -11.7898C564.728 -0.946971 567.522 12.0265 567.522 27.1307C567.522 42.2822 564.705 55.303 559.07 66.1932C553.483 77.0833 545.41 85.4403 534.852 91.2642C524.34 97.0881 511.698 100 496.925 100ZM473.985 77.2017H495.647C505.78 77.2017 514.231 75.3551 521.002 71.6619C527.773 67.9214 532.863 62.358 536.272 54.9716C539.681 47.5379 541.386 38.2576 541.386 27.1307C541.386 16.0038 539.681 6.77083 536.272 -0.568187C532.863 -7.95455 527.82 -13.4706 521.144 -17.1165C514.515 -20.8097 506.277 -22.6562 496.428 -22.6562H473.985V77.2017ZM618.907 -45.4545V100H592.558V-45.4545H618.907ZM766.972 -45.4545V100H743.534L674.997 0.923294H673.79V100H647.44V-45.4545H671.02L739.486 53.6932H740.764V-45.4545H766.972ZM893.126 0.994313C891.942 -2.84091 890.308 -6.27367 888.225 -9.30398C886.189 -12.3816 883.727 -15.0095 880.839 -17.1875C877.998 -19.3655 874.731 -20.9991 871.038 -22.0881C867.344 -23.2244 863.32 -23.7926 858.964 -23.7926C851.151 -23.7926 844.191 -21.8277 838.083 -17.8977C831.975 -13.9678 827.169 -8.1913 823.665 -0.568187C820.209 7.00757 818.481 16.2405 818.481 27.1307C818.481 38.1155 820.209 47.4195 823.665 55.0426C827.122 62.6657 831.928 68.4659 838.083 72.4432C844.238 76.3731 851.388 78.3381 859.532 78.3381C866.918 78.3381 873.31 76.9176 878.708 74.0767C884.153 71.2358 888.344 67.2112 891.279 62.0028C894.215 56.7472 895.683 50.5919 895.683 43.5369L901.648 44.4602H862.16V23.8636H921.18V41.3352C921.18 53.7879 918.528 64.5597 913.225 73.6506C907.922 82.7415 900.63 89.7491 891.35 94.6733C882.07 99.5502 871.416 101.989 859.39 101.989C845.99 101.989 834.224 98.982 824.092 92.9688C814.006 86.9081 806.123 78.3144 800.441 67.1875C794.807 56.0133 791.989 42.7557 791.989 27.4148C791.989 15.6723 793.647 5.18465 796.961 -4.0483C800.323 -13.2812 805.01 -21.1174 811.023 -27.5568C817.037 -34.0436 824.092 -38.9678 832.188 -42.3295C840.285 -45.7386 849.092 -47.4432 858.609 -47.4432C866.658 -47.4432 874.163 -46.2595 881.123 -43.892C888.083 -41.572 894.262 -38.2576 899.66 -33.9489C905.105 -29.6402 909.579 -24.5265 913.083 -18.608C916.587 -12.6894 918.883 -6.1553 919.972 0.994313H893.126ZM27.696 104.545V250H1.34659V104.545H27.696ZM175.761 104.545V250H152.323L83.7862 150.923H82.5788V250H56.2294V104.545H79.8089L148.275 203.693H149.553V104.545H175.761ZM283.52 144.531C282.857 138.329 280.063 133.499 275.139 130.043C270.262 126.586 263.918 124.858 256.105 124.858C250.613 124.858 245.902 125.687 241.972 127.344C238.042 129.001 235.035 131.25 232.952 134.091C230.868 136.932 229.803 140.175 229.756 143.821C229.756 146.851 230.442 149.479 231.815 151.705C233.236 153.93 235.153 155.824 237.568 157.386C239.983 158.902 242.658 160.18 245.594 161.222C248.529 162.263 251.489 163.139 254.472 163.849L268.108 167.259C273.6 168.537 278.88 170.265 283.946 172.443C289.06 174.621 293.629 177.367 297.653 180.682C301.725 183.996 304.945 187.997 307.312 192.685C309.68 197.372 310.864 202.865 310.864 209.162C310.864 217.685 308.686 225.189 304.33 231.676C299.973 238.116 293.676 243.158 285.438 246.804C277.246 250.402 267.327 252.202 255.679 252.202C244.363 252.202 234.538 250.45 226.205 246.946C217.919 243.442 211.432 238.329 206.744 231.605C202.104 224.882 199.595 216.69 199.216 207.031H225.139C225.518 212.098 227.08 216.312 229.827 219.673C232.573 223.035 236.148 225.545 240.551 227.202C245.002 228.859 249.973 229.688 255.466 229.688C261.195 229.688 266.214 228.835 270.523 227.131C274.879 225.379 278.288 222.964 280.75 219.886C283.212 216.761 284.467 213.116 284.514 208.949C284.467 205.161 283.354 202.036 281.176 199.574C278.998 197.064 275.944 194.981 272.014 193.324C268.132 191.619 263.586 190.104 258.378 188.778L241.83 184.517C229.85 181.439 220.381 176.776 213.42 170.526C206.508 164.228 203.051 155.871 203.051 145.455C203.051 136.884 205.371 129.38 210.011 122.94C214.699 116.501 221.067 111.506 229.116 107.955C237.166 104.356 246.28 102.557 256.46 102.557C266.782 102.557 275.826 104.356 283.591 107.955C291.403 111.506 297.535 116.454 301.986 122.798C306.437 129.096 308.733 136.34 308.875 144.531H283.52ZM334.354 250V104.545H388.9C400.074 104.545 409.449 106.629 417.025 110.795C424.648 114.962 430.401 120.691 434.283 127.983C438.213 135.227 440.178 143.466 440.178 152.699C440.178 162.027 438.213 170.312 434.283 177.557C430.353 184.801 424.553 190.507 416.883 194.673C409.212 198.793 399.766 200.852 388.545 200.852H352.394V179.19H384.994C391.528 179.19 396.878 178.054 401.045 175.781C405.211 173.509 408.289 170.384 410.278 166.406C412.314 162.429 413.332 157.86 413.332 152.699C413.332 147.538 412.314 142.992 410.278 139.062C408.289 135.133 405.188 132.079 400.974 129.901C396.807 127.675 391.433 126.562 384.852 126.562H360.704V250H334.354ZM463.065 250V104.545H557.668V126.634H489.415V166.122H552.767V188.21H489.415V227.912H558.236V250H463.065ZM709.053 153.622H682.49C681.732 149.266 680.336 145.407 678.3 142.045C676.264 138.636 673.731 135.748 670.7 133.381C667.67 131.013 664.214 129.238 660.331 128.054C656.496 126.823 652.353 126.207 647.902 126.207C639.995 126.207 632.987 128.196 626.879 132.173C620.771 136.103 615.989 141.88 612.533 149.503C609.076 157.079 607.348 166.335 607.348 177.273C607.348 188.4 609.076 197.775 612.533 205.398C616.036 212.973 620.819 218.703 626.879 222.585C632.987 226.42 639.971 228.338 647.831 228.338C652.187 228.338 656.259 227.77 660.047 226.634C663.882 225.45 667.315 223.722 670.345 221.449C673.423 219.176 676.003 216.383 678.087 213.068C680.217 209.754 681.685 205.966 682.49 201.705L709.053 201.847C708.058 208.759 705.904 215.246 702.589 221.307C699.322 227.367 695.037 232.718 689.734 237.358C684.431 241.951 678.229 245.549 671.126 248.153C664.024 250.71 656.141 251.989 647.476 251.989C634.692 251.989 623.281 249.029 613.243 243.111C603.205 237.192 595.298 228.646 589.521 217.472C583.745 206.297 580.857 192.898 580.857 177.273C580.857 161.6 583.768 148.201 589.592 137.074C595.416 125.9 603.347 117.353 613.385 111.435C623.423 105.516 634.786 102.557 647.476 102.557C655.572 102.557 663.101 103.693 670.061 105.966C677.021 108.239 683.224 111.577 688.669 115.98C694.114 120.336 698.589 125.687 702.092 132.031C705.643 138.329 707.964 145.526 709.053 153.622ZM726.79 126.634V104.545H842.842V126.634H797.884V250H771.748V126.634H726.79ZM891.563 104.545V250H865.214V104.545H891.563ZM1050.07 177.273C1050.07 192.945 1047.13 206.368 1041.26 217.543C1035.44 228.67 1027.48 237.192 1017.4 243.111C1007.36 249.029 995.973 251.989 983.236 251.989C970.499 251.989 959.088 249.029 949.003 243.111C938.965 237.145 931.01 228.598 925.139 217.472C919.315 206.297 916.403 192.898 916.403 177.273C916.403 161.6 919.315 148.201 925.139 137.074C931.01 125.9 938.965 117.353 949.003 111.435C959.088 105.516 970.499 102.557 983.236 102.557C995.973 102.557 1007.36 105.516 1017.4 111.435C1027.48 117.353 1035.44 125.9 1041.26 137.074C1047.13 148.201 1050.07 161.6 1050.07 177.273ZM1023.58 177.273C1023.58 166.241 1021.85 156.937 1018.39 149.361C1014.98 141.738 1010.25 135.985 1004.19 132.102C998.127 128.172 991.143 126.207 983.236 126.207C975.329 126.207 968.345 128.172 962.284 132.102C956.223 135.985 951.465 141.738 948.009 149.361C944.599 156.937 942.895 166.241 942.895 177.273C942.895 188.305 944.599 197.633 948.009 205.256C951.465 212.831 956.223 218.584 962.284 222.514C968.345 226.397 975.329 228.338 983.236 228.338C991.143 228.338 998.127 226.397 1004.19 222.514C1010.25 218.584 1014.98 212.831 1018.39 205.256C1021.85 197.633 1023.58 188.305 1023.58 177.273ZM1194.51 104.545V250H1171.07L1102.54 150.923H1101.33V250H1074.98V104.545H1098.56L1167.02 203.693H1168.3V104.545H1194.51Z" fill="white"/>
</g>
<defs>
<clipPath id="clip0_41_1669">
<rect width="740" height="204" rx="28" fill="white"/>
</clipPath>
</defs>
</svg>
