<svg width="20" height="20" viewBox="0 0 20 20" fill="none" xmlns="http://www.w3.org/2000/svg">
<path d="M19.3177 6.71942L14.7904 2.19212C14.4168 1.81856 14.0379 1.62915 13.6643 1.62915C13.1512 1.62915 12.5521 2.01938 12.5521 3.11923V4.66052C9.26285 4.80388 6.19117 6.15282 3.84836 8.49552C1.36695 10.9768 0.000234375 14.2758 0 17.7849C5.38261e-06 17.9079 0.0386751 18.0277 0.110535 18.1274C0.182396 18.2272 0.283807 18.3018 0.400413 18.3407C0.51702 18.3796 0.642915 18.3809 0.760278 18.3443C0.877642 18.3077 0.980529 18.2352 1.05438 18.1369C3.82074 14.4546 7.98559 12.2785 12.5521 12.1067V13.6243C12.5521 14.724 13.1512 15.1143 13.6642 15.1143H13.6643C14.038 15.1143 14.4169 14.9249 14.7904 14.5514L19.3177 10.024C19.7577 9.58415 20 8.99735 20 8.37173C20 7.74622 19.7577 7.15938 19.3177 6.71942Z" fill="white"/>
</svg>
