<svg width="245" height="91" viewBox="0 0 245 91" fill="none" xmlns="http://www.w3.org/2000/svg">
<rect width="244" height="90" transform="translate(0 1)" fill="#D31907"/>
<path fill-rule="evenodd" clip-rule="evenodd" d="M163.109 0.821289C187.145 0.821289 220.845 0.821289 244.881 0.821289C244.881 30.8826 244.881 60.9439 244.881 91.0052C223.334 91.0052 192.121 91.0052 170.573 91.0052C170.597 68.5413 170.573 46.0773 170.503 23.6135C168.023 16.0179 165.558 8.42052 163.109 0.821289Z" fill="#3A3B3A"/>
<path fill-rule="evenodd" clip-rule="evenodd" d="M61.7539 88.2789C57.6848 85.1768 53.6711 81.9879 49.7129 78.7118C49.6567 78.7439 49.6333 78.7909 49.6425 78.8525C36.3104 78.8525 22.9785 78.8525 9.64648 78.8525C9.64648 56.4824 9.64648 34.1123 9.64648 11.7422C14.247 11.7422 18.8474 11.7422 23.4479 11.7422C23.4479 29.5633 23.4479 47.3843 23.4479 65.2053C32.1794 65.2053 40.911 65.2053 49.6425 65.2053C49.6425 47.3843 49.6425 29.5633 49.6425 11.7422C53.6797 11.7422 57.7167 11.7422 61.7539 11.7422C61.7539 37.2544 61.7539 62.7667 61.7539 88.2789Z" fill="white"/>
<path fill-rule="evenodd" clip-rule="evenodd" d="M67.1055 11.7422C79.6396 11.7187 92.1735 11.7422 104.707 11.8126C106.779 15.2712 108.868 18.7182 110.974 22.1535C111.165 22.697 111.235 23.2597 111.186 23.8418C100.529 23.8418 89.8732 23.8418 79.2169 23.8418C79.2169 29.0005 79.2169 34.1592 79.2169 39.3179C89.8732 39.3179 100.529 39.3179 111.186 39.3179C111.186 43.3512 111.186 47.3843 111.186 51.4175C100.529 51.4175 89.8732 51.4175 79.2169 51.4175C79.2169 56.5293 79.2169 61.6412 79.2169 66.753C89.8732 66.753 100.529 66.753 111.186 66.753C111.186 70.7862 111.186 74.8193 111.186 78.8525C96.4922 78.8525 81.7988 78.8525 67.1055 78.8525C67.1055 56.4824 67.1055 34.1123 67.1055 11.7422Z" fill="white"/>
<path fill-rule="evenodd" clip-rule="evenodd" d="M111.045 11.7422C115.787 11.6953 120.528 11.7422 125.269 11.8829C129.576 19.1284 133.918 26.3506 138.296 33.5495C142.61 26.3089 146.953 19.0866 151.323 11.8829C154.093 11.6953 156.861 11.6953 159.632 11.8829C160.317 13.9378 160.975 16.0012 161.603 18.0733C161.592 18.3264 161.522 18.561 161.392 18.7768C156.064 27.6404 150.735 36.504 145.408 45.3677C152.108 56.459 158.775 67.5737 165.406 78.7118C160.712 78.876 156.018 78.8993 151.323 78.7821C146.927 71.6184 142.585 64.4197 138.296 57.1858C133.941 64.3378 129.623 71.5131 125.339 78.7118C122.463 78.8515 119.576 78.8985 116.678 78.8525C116.655 75.6631 116.678 72.474 116.749 69.2854C121.532 61.2943 126.344 53.3217 131.184 45.3677C124.432 34.1746 117.719 22.9662 111.045 11.7422Z" fill="white"/>
<path fill-rule="evenodd" clip-rule="evenodd" d="M175.545 26.9361C179.335 26.89 183.113 26.9368 186.882 27.0768C191.914 42.6519 196.961 58.2219 202.021 73.7867C201.468 75.4583 200.904 77.1231 200.331 78.7813C198.138 78.8972 195.956 78.8737 193.783 78.7109C191.226 70.8858 188.691 63.0538 186.178 55.2153C186.107 63.0939 186.083 70.9727 186.107 78.8516C182.586 78.8516 179.066 78.8516 175.545 78.8516C175.545 61.5465 175.545 44.2413 175.545 26.9361Z" fill="white"/>
<path fill-rule="evenodd" clip-rule="evenodd" d="M226.809 53.3865C223.971 44.6231 221.155 35.8534 218.359 27.077C221.199 26.9367 224.062 26.8898 226.95 26.9363C226.997 35.7768 226.95 44.5935 226.809 53.3865Z" fill="#D31907"/>
<path fill-rule="evenodd" clip-rule="evenodd" d="M218.358 27.0771C221.153 35.8535 223.97 44.6233 226.808 53.3866C226.808 56.9978 226.808 60.6088 226.808 64.22C227.512 64.22 228.216 64.22 228.92 64.22C228.92 67.2213 228.92 70.2229 228.92 73.2243C228.216 73.2243 227.512 73.2243 226.808 73.2243C226.808 75.0533 226.808 76.8823 226.808 78.7113C223.804 78.7113 220.798 78.7113 217.794 78.7113C217.794 76.8823 217.794 75.0533 217.794 73.2243C213.946 73.2243 210.095 73.2243 206.246 73.2243C204.487 67.5071 202.657 61.809 200.754 56.1301C203.856 46.4788 207.003 36.8413 210.19 27.2178C212.91 27.0771 215.634 27.0303 218.358 27.0771Z" fill="white"/>
<path fill-rule="evenodd" clip-rule="evenodd" d="M217.653 39.0361C217.793 47.4071 217.84 55.8016 217.793 64.2201C215.022 64.2669 212.253 64.2201 209.484 64.0794C212.236 55.7386 214.958 47.3909 217.653 39.0361Z" fill="#3A3B3A"/>
<path fill-rule="evenodd" clip-rule="evenodd" d="M61.754 88.278C57.741 88.4184 53.7038 88.4653 49.6426 88.4187C49.6426 85.2296 49.6426 82.0407 49.6426 78.8516C49.6334 78.79 49.6568 78.743 49.713 78.7109C53.6712 81.987 57.6848 85.1759 61.754 88.278Z" fill="#3A3B3A"/>
</svg>
