<svg width="20" height="20" viewBox="0 0 20 20" fill="none" xmlns="http://www.w3.org/2000/svg">
<path d="M19.9479 7.24268C19.8839 7.04449 19.7631 6.86951 19.6004 6.73954C19.4376 6.60957 19.2403 6.53037 19.0328 6.51181L13.2603 5.98761L10.9777 0.644899C10.8093 0.253366 10.426 0 10.0001 0C9.57428 0 9.19095 0.253405 9.02266 0.645876L6.74003 5.98765L0.966561 6.51181C0.759374 6.53078 0.562314 6.61015 0.399811 6.74008C0.237309 6.87 0.116512 7.04475 0.0523971 7.24268C-0.0792859 7.64769 0.0423187 8.09189 0.363225 8.37189L4.72662 12.1986L3.43994 17.8663C3.3458 18.283 3.50752 18.7138 3.85331 18.9637C4.03914 19.098 4.25661 19.1664 4.47587 19.1664C4.66494 19.1664 4.85244 19.1154 5.0208 19.0147L10.0001 16.0387L14.9777 19.0147C15.3419 19.2338 15.8011 19.2138 16.1461 18.9637C16.315 18.8415 16.4442 18.6723 16.5177 18.4771C16.5912 18.282 16.6057 18.0696 16.5595 17.8663L15.2728 12.1986L19.6362 8.37267C19.7931 8.23558 19.9064 8.0554 19.9618 7.8545C20.0172 7.65361 20.0124 7.44086 19.9479 7.24268Z" fill="#FFC107"/>
</svg>
