<svg width="32" height="32" viewBox="0 0 32 32" fill="none" xmlns="http://www.w3.org/2000/svg">
<path d="M16 32C24.8366 32 32 24.8366 32 16C32 7.16344 24.8366 0 16 0C7.16344 0 0 7.16344 0 16C0 24.8366 7.16344 32 16 32Z" fill="url(#paint0_linear_1_684)"/>
<path fill-rule="evenodd" clip-rule="evenodd" d="M7.24262 15.8309C11.9069 13.7988 15.0172 12.459 16.5734 11.8118C21.0168 9.96363 21.9401 9.64257 22.5419 9.63195C22.6742 9.62963 22.9702 9.66245 23.1619 9.81801C23.4462 10.0488 23.4479 10.5496 23.4163 10.8811C23.1755 13.4111 22.1336 19.5507 21.6036 22.3843C21.3792 23.5833 20.9376 23.9854 20.5101 24.0247C19.581 24.1102 18.8754 23.4106 17.9755 22.8208C16.5673 21.8976 15.7717 21.323 14.4048 20.4223C12.8251 19.3813 13.8492 18.8091 14.7494 17.8741C14.9851 17.6294 19.0789 13.9057 19.1581 13.5679C19.1681 13.5256 19.1772 13.3681 19.0837 13.285C18.9901 13.2019 18.8521 13.2303 18.7524 13.2529C18.6112 13.2849 16.3616 14.7719 12.0036 17.7136C11.365 18.1521 10.7866 18.3658 10.2684 18.3546C9.69712 18.3423 8.59825 18.0316 7.78131 17.766C6.77931 17.4403 5.98293 17.2681 6.05231 16.7149C6.08843 16.4268 6.48518 16.1321 7.24262 15.8309Z" fill="white"/>
<defs>
<linearGradient id="paint0_linear_1_684" x1="16" y1="0" x2="16" y2="31.75" gradientUnits="userSpaceOnUse">
<stop stop-color="#2AABEE"/>
<stop offset="1" stop-color="#229ED9"/>
</linearGradient>
</defs>
</svg>
