<svg width="13" height="11" viewBox="0 0 13 11" fill="none" xmlns="http://www.w3.org/2000/svg">
<path d="M12.529 5.63269L7.77265 10.3669C7.67349 10.4656 7.53899 10.5211 7.39875 10.5211C7.25851 10.5211 7.12401 10.4656 7.02485 10.3669C6.92569 10.2682 6.86997 10.1343 6.86997 9.99475C6.86997 9.85517 6.92569 9.72129 7.02485 9.62259L10.8795 5.78656H0.528482C0.388321 5.78656 0.253899 5.73114 0.15479 5.63249C0.0556792 5.53384 0 5.40004 0 5.26053C0 5.12102 0.0556792 4.98723 0.15479 4.88858C0.253899 4.78993 0.388321 4.73452 0.528482 4.73452H10.8795L7.02485 0.898483C6.92569 0.799769 6.86997 0.665905 6.86997 0.526317C6.86997 0.386729 6.92569 0.252858 7.02485 0.154154C7.12401 0.0554508 7.25851 0 7.39875 0C7.53899 0 7.67349 0.0554508 7.77265 0.154154L12.529 4.88837C12.5781 4.93723 12.6171 4.99524 12.6437 5.0591C12.6703 5.12296 12.684 5.19141 12.684 5.26053C12.684 5.32966 12.6703 5.39811 12.6437 5.46196C12.6171 5.52582 12.5781 5.58385 12.529 5.63269Z" fill="#222222"/>
</svg>
