<svg width="13" height="11" viewBox="0 0 13 11" fill="none" xmlns="http://www.w3.org/2000/svg">
<path d="M0.154999 4.88843L4.91134 0.154207C5.0105 0.055506 5.145 4.29598e-05 5.28524 4.29598e-05C5.42548 4.29598e-05 5.55998 0.055506 5.65914 0.154207C5.7583 0.252908 5.81402 0.386782 5.81402 0.526366C5.81402 0.66595 5.7583 0.799825 5.65914 0.898526L1.80452 4.73456H12.1555C12.2957 4.73456 12.4301 4.78998 12.5292 4.88863C12.6283 4.98728 12.684 5.12108 12.684 5.26059C12.684 5.40009 12.6283 5.53389 12.5292 5.63254C12.4301 5.73119 12.2957 5.7866 12.1555 5.7866H1.80452L5.65914 9.62264C5.7583 9.72135 5.81402 9.85521 5.81402 9.9948C5.81402 10.1344 5.7583 10.2683 5.65914 10.367C5.55998 10.4657 5.42548 10.5211 5.28524 10.5211C5.145 10.5211 5.0105 10.4657 4.91134 10.367L0.154999 5.63275C0.10586 5.58389 0.0668843 5.52588 0.0402859 5.46202C0.0136875 5.39816 3.94562e-06 5.32971 3.94562e-06 5.26059C3.94562e-06 5.19145 0.0136875 5.12301 0.0402859 5.05915C0.0668843 4.99529 0.10586 4.93727 0.154999 4.88843Z" fill="#222222"/>
</svg>
