<svg width="32" height="32" viewBox="0 0 32 32" fill="none" xmlns="http://www.w3.org/2000/svg">
<path d="M16 32C24.8366 32 32 24.8366 32 16C32 7.16344 24.8366 0 16 0C7.16344 0 0 7.16344 0 16C0 24.8366 7.16344 32 16 32Z" fill="#29A71A"/>
<path d="M23.0544 8.94585C21.3897 7.26457 19.1791 6.2335 16.8211 6.03861C14.4632 5.84373 12.1132 6.49786 10.1951 7.88301C8.27703 9.26817 6.91703 11.2932 6.36047 13.5927C5.80391 15.8923 6.08741 18.3151 7.15984 20.424L6.10712 25.5349C6.09619 25.5858 6.09588 25.6384 6.10621 25.6894C6.11653 25.7404 6.13727 25.7887 6.16712 25.8313C6.21084 25.896 6.27326 25.9458 6.34604 25.974C6.41881 26.0023 6.49847 26.0077 6.57439 25.9895L11.5835 24.8022C13.6865 25.8475 16.0922 26.1128 18.3724 25.5508C20.6527 24.9889 22.6596 23.6362 24.0361 21.7334C25.4126 19.8306 26.0694 17.5012 25.8897 15.1596C25.7099 12.8181 24.7052 10.6162 23.0544 8.94585ZM21.4926 21.4113C20.3408 22.5598 18.8576 23.318 17.2521 23.579C15.6466 23.8399 13.9997 23.5905 12.5435 22.8658L11.8453 22.5204L8.77439 23.2477L8.78348 23.2095L9.41984 20.1186L9.07803 19.444C8.33395 17.9827 8.07147 16.3234 8.32818 14.7037C8.58489 13.0841 9.34763 11.5873 10.5071 10.4277C11.964 8.9712 13.9398 8.153 15.9998 8.153C18.0599 8.153 20.0357 8.9712 21.4926 10.4277C21.505 10.4419 21.5183 10.4553 21.5326 10.4677C22.9714 11.9279 23.7747 13.8977 23.7672 15.9477C23.7597 17.9977 22.9421 19.9616 21.4926 21.4113Z" fill="white"/>
<path d="M21.2196 19.1443C20.8432 19.737 20.2486 20.4624 19.5014 20.6424C18.1923 20.9588 16.1832 20.6533 13.6832 18.3224L13.6523 18.2952C11.4541 16.257 10.8832 14.5606 11.0214 13.2152C11.0977 12.4515 11.7341 11.7606 12.2705 11.3097C12.3553 11.2373 12.4558 11.1858 12.5641 11.1592C12.6724 11.1327 12.7853 11.1318 12.894 11.1567C13.0027 11.1817 13.104 11.2316 13.1899 11.3027C13.2758 11.3738 13.3438 11.464 13.3886 11.5661L14.1977 13.3843C14.2503 13.5021 14.2698 13.6321 14.2541 13.7603C14.2384 13.8884 14.1881 14.0098 14.1086 14.1115L13.6996 14.6424C13.6118 14.7521 13.5588 14.8854 13.5475 15.0254C13.5361 15.1654 13.5669 15.3056 13.6359 15.4279C13.865 15.8297 14.4141 16.4206 15.0232 16.9679C15.7068 17.5861 16.465 18.1515 16.945 18.3443C17.0734 18.3967 17.2147 18.4095 17.3504 18.381C17.4862 18.3525 17.6103 18.284 17.7068 18.1843L18.1814 17.7061C18.2729 17.6158 18.3868 17.5514 18.5114 17.5194C18.6359 17.4875 18.7667 17.4892 18.8905 17.5243L20.8123 18.0697C20.9183 18.1022 21.0155 18.1586 21.0964 18.2344C21.1773 18.3102 21.2398 18.4036 21.2791 18.5072C21.3184 18.6109 21.3334 18.7222 21.3231 18.8326C21.3128 18.9431 21.2774 19.0496 21.2196 19.1443Z" fill="white"/>
</svg>
